<svg width="36" height="57" viewBox="0 0 36 57" fill="none" xmlns="http://www.w3.org/2000/svg">
<path d="M21.0951 7.91406L18.3573 22.7061L18.0048 24.6668C17.8945 25.2801 18.3659 25.8437 18.989 25.8437H20.979H31.7312L15.1715 49.0859L17.9093 34.2939L18.2523 32.3282C18.3591 31.7164 17.8883 31.1562 17.2672 31.1562H15.271H4.5354L21.0951 7.91406ZM25.0575 1.05526C25.2514 0.00315914 23.8805 -0.577531 23.2597 0.293715L0.501093 32.2322C0.0293811 32.8942 0.502631 33.8125 1.31549 33.8125H15.271L11.1925 55.9447C10.9986 56.9968 12.3695 57.5775 12.9903 56.7063L35.7489 24.7678C36.2206 24.1058 35.7474 23.1875 34.9345 23.1875H20.979L25.0575 1.05526Z" fill="#000000"/>
</svg>
