<svg width="59" height="59" viewBox="0 0 59 59" fill="none"
    xmlns="http://www.w3.org/2000/svg">
    <path d="M49.5916 45.8741C49.6329 45.2434 49.5271 44.6035 49.2888 43.9711C48.5924 42.1605 46.8237 40.9439 44.8818 40.9439C44.4005 40.9439 44.0099 40.5533 44.0099 40.0721C44.0099 39.5908 44.4005 39.2002 44.8818 39.2002C47.038 39.2002 49.0356 40.2976 50.2235 42.0343L49.5916 45.8741ZM49.5916 45.8741C49.5114 47.104 48.9575 48.2287 48.031 49.0413L49.5916 45.8741ZM50.4171 41.8745C49.1823 40.0823 47.115 38.9502 44.8818 38.9502C44.2624 38.9502 43.7599 39.4527 43.7599 40.0721C43.7599 40.6914 44.2624 41.1939 44.8818 41.1939C46.7199 41.1939 48.3957 42.3463 49.0551 44.06C49.2821 44.6627 49.3808 45.2668 49.3422 45.8578L49.3421 45.8578C49.2663 47.0216 48.7427 48.0846 47.8661 48.8534L47.8661 48.8534C46.9893 49.6229 45.8648 50.0046 44.7042 49.9276L44.704 49.9276C44.3843 49.9066 44.0482 49.8375 43.6411 49.7056C43.0873 49.5248 42.4888 49.799 42.2611 50.3337L42.2609 50.334C41.4602 52.2203 39.6193 53.439 37.5708 53.439C34.7631 53.439 32.4785 51.1544 32.4785 48.3467V10.0319C32.4785 8.04428 34.0959 6.42646 36.0834 6.42646C37.875 6.42646 39.3598 7.73756 39.626 9.47951C38.0328 10.4572 36.9645 12.2128 36.9645 14.2175C36.9645 14.8375 37.4671 15.3393 38.0864 15.3393C38.7056 15.3393 39.2082 14.8375 39.2082 14.2175C39.2082 12.4128 40.659 10.9422 42.455 10.9045C44.2511 10.9422 45.7018 12.4128 45.7018 14.2169C45.7018 14.546 45.6401 14.8928 45.5067 15.2813C45.5067 15.2814 45.5067 15.2814 45.5067 15.2814L45.7432 15.3625C45.71 15.459 45.6943 15.5602 45.6961 15.6619C45.6967 15.6857 45.6978 15.7078 45.7002 15.7287M50.4171 41.8745L45.4476 15.7057M50.4171 41.8745C51.8056 40.6822 52.6077 38.9735 52.6077 37.1181C52.6077 35.6273 52.0655 34.1934 51.0745 33.0468C50.0356 33.6181 48.846 33.9492 47.5776 33.9492C43.5539 33.9492 40.2811 30.6765 40.2811 26.6527C40.2811 26.0327 40.7837 25.5309 41.403 25.5309C42.0222 25.5309 42.5248 26.0327 42.5248 26.6527C42.5248 29.4384 44.792 31.7055 47.5776 31.7055C50.3632 31.7055 52.6297 29.4384 52.6297 26.6527C52.6297 26.6486 52.6298 26.6448 52.63 26.6414C52.5678 25.0325 51.7516 23.5487 50.4076 22.6437C49.9939 22.3654 49.8137 21.8471 49.9655 21.3721L50.4171 41.8745ZM45.7002 15.7287L45.4843 15.667L45.4792 15.6656L45.4598 15.66L45.4581 15.666L45.4576 15.6677L45.4556 15.6748L45.4544 15.6789L45.4541 15.68L45.454 15.6803L45.454 15.6803L45.454 15.6804L45.4539 15.6803L45.452 15.6876C45.4505 15.6936 45.449 15.6996 45.4476 15.7057M45.7002 15.7287L45.6447 15.7349L45.6404 15.7354L45.4517 15.7563C45.4498 15.7391 45.4485 15.7222 45.4476 15.7057M45.7002 15.7287L45.6943 15.7491C45.6257 16.0193 45.6909 16.3065 45.8693 16.521C46.0477 16.7354 46.314 16.8517 46.5964 16.8337C46.6569 16.8296 46.7173 16.8221 46.8243 16.8069M45.4476 15.7057C45.3667 16.0483 45.4515 16.4097 45.6771 16.6809C45.9064 16.9564 46.2498 17.1063 46.6124 17.0832L46.6132 17.0831C46.6797 17.0786 46.7443 17.0706 46.8415 17.057M46.8243 16.8069V17.0569C46.83 17.0569 46.8358 17.057 46.8415 17.057M46.8243 16.8069L46.8593 17.0545C46.8532 17.0553 46.8473 17.0562 46.8415 17.057M46.8243 16.8069L46.8415 17.057M44.5575 52.1662L44.5578 52.1663C46.3106 52.278 48.019 51.7035 49.3456 50.5394C50.6718 49.3756 51.466 47.7636 51.5808 46.0025C51.6249 45.3239 51.5582 44.6441 51.3838 43.9727C53.5691 42.3576 54.8502 39.854 54.8502 37.117C54.8502 35.164 54.1729 33.2866 52.9333 31.7667C54.1823 30.4222 54.8863 28.6655 54.8863 26.8376C54.8863 24.6761 53.9331 22.6471 52.3027 21.2679C52.358 20.9638 52.3857 20.6675 52.3857 20.3741C52.3857 17.6743 50.4525 15.4186 47.8981 14.9173C47.9313 14.682 47.9473 14.4491 47.9473 14.2169C47.9473 11.2536 45.616 8.83296 42.6934 8.6722C42.6466 8.66476 42.5889 8.65717 42.5259 8.65717C42.5048 8.65717 42.4856 8.65849 42.474 8.65929L42.4726 8.65939C42.4649 8.65993 42.46 8.66026 42.4563 8.66047C42.453 8.66028 42.4486 8.65998 42.4417 8.6595L42.4388 8.65929C42.4269 8.65847 42.4078 8.65717 42.3864 8.65717C42.1815 8.65717 41.9761 8.67055 41.7653 8.69777C41.1625 6.09444 38.8458 4.18213 36.084 4.18213C32.8588 4.18213 30.2354 6.80566 30.2354 10.0313V48.3461C30.2354 52.392 33.5261 55.6822 37.5714 55.6822C40.1928 55.6822 42.5782 54.2965 43.8865 52.0823C44.1133 52.1244 44.3349 52.1518 44.5575 52.1662ZM52.6319 26.6192C52.632 26.6181 52.632 26.6176 52.632 26.6182L52.6319 26.6192Z" fill="#000000" stroke="#000000" stroke-width="0.5"/>
    <path d="M16.0148 50.3338L16.0148 50.334C16.815 52.2202 18.6559 53.4389 20.7044 53.4389C23.5121 53.4389 25.7966 51.1543 25.7966 48.3466L25.7961 10.0312C25.7961 8.04361 24.1787 6.42579 22.1912 6.42579C20.3996 6.42579 18.9148 7.73688 18.6486 9.47884C20.2418 10.4565 21.3101 12.2121 21.3101 14.2168C21.3101 14.8367 20.8082 15.3387 20.1882 15.3387C19.5683 15.3387 19.0664 14.8367 19.0664 14.2168C19.0664 12.4121 17.6162 10.9415 15.8195 10.9038C14.023 10.9409 12.5728 12.4121 12.5728 14.2162C12.5728 14.5442 12.6345 14.8916 12.768 15.2815L12.5314 15.3624L12.7676 15.2805C12.812 15.4084 12.8321 15.5426 12.8284 15.6769L12.8284 15.6788C12.8281 15.6871 12.8276 15.6956 12.827 15.7039C12.909 16.0459 12.825 16.4062 12.6011 16.6776L16.0148 50.3338ZM16.0148 50.3338C15.8345 49.9096 15.4215 49.6503 14.982 49.6503C14.8675 49.6503 14.7496 49.6674 14.6331 49.706L14.7117 49.9433L14.6345 49.7055C14.2281 49.8374 13.8921 49.9065 13.5718 49.9275L13.5881 50.177M16.0148 50.3338L13.5881 50.177M13.5881 50.177L13.5718 49.9275C12.4064 50.004 11.2864 49.6223 10.4103 48.8533L10.4102 48.8533C9.53362 48.0845 9.01008 47.0215 8.93418 45.8577L8.93418 45.8577C8.89267 45.2242 9.00201 44.5785 9.26362 43.9373L13.5881 50.177ZM8.31029 21.3734L8.31031 21.3735C8.46128 21.8481 8.282 22.3658 7.86818 22.6442C7.86821 22.6442 7.86824 22.6442 7.86827 22.6442L8.31029 21.3734ZM8.31029 21.3734C8.18826 20.9902 8.13491 20.675 8.13491 20.374C8.13491 18.5527 9.61245 17.0659 11.4818 17.0638C11.538 17.0713 11.599 17.0788 11.6627 17.083L11.6639 17.0831M8.31029 21.3734L11.6639 17.0831M11.6639 17.0831C12.0252 17.1055 12.3719 16.9554 12.601 16.6777L11.6639 17.0831ZM13.7174 52.1679L13.7179 52.1679C13.9378 52.1534 14.1604 52.1251 14.3879 52.0831C15.6962 54.298 18.0816 55.6838 20.7032 55.6838C24.7485 55.6838 28.0392 52.393 28.0392 48.3478V10.0319C28.0392 10.0319 28.0392 10.0318 28.0392 10.0318C28.0404 6.8061 25.4169 4.18262 22.1918 4.18262C19.43 4.18262 17.1137 6.09496 16.5116 8.6983C16.3004 8.67105 16.0949 8.65766 15.8899 8.65766C15.8687 8.65766 15.8496 8.65898 15.838 8.65978L15.8366 8.65988C15.8288 8.66042 15.824 8.66075 15.8203 8.66096C15.8165 8.66074 15.8114 8.66038 15.8027 8.65978C15.7909 8.65896 15.7717 8.65766 15.7504 8.65766C15.6874 8.65766 15.6298 8.66525 15.583 8.67269C12.6603 8.83345 10.3296 11.2541 10.3296 14.2174C10.3296 14.4499 10.346 14.6827 10.3791 14.9177C7.82456 15.419 5.89116 17.6747 5.89116 20.3746C5.89116 20.6676 5.91895 20.9639 5.97428 21.2684C4.3438 22.6475 3.39062 24.6765 3.39062 26.8381C3.39062 28.6659 4.09412 30.4227 5.34253 31.7682C4.10234 33.2882 3.42492 35.1656 3.42492 37.1186C3.42492 39.8556 4.70604 42.3586 6.89124 43.9742C6.71647 44.6458 6.65032 45.3257 6.69498 46.0048C6.80972 47.7652 7.60327 49.3771 8.92955 50.541C10.2561 51.7056 11.9598 52.2802 13.7174 52.1679ZM9.27929 43.8858C10.0244 42.2157 11.6036 41.1828 13.4544 41.1828C14.0745 41.1828 14.5763 40.6802 14.5763 40.0609C14.5763 39.4417 14.0745 38.939 13.4544 38.939C11.1764 38.939 9.10526 40.0529 7.84978 41.8646C6.46749 40.6727 5.66867 38.9683 5.66867 37.118C5.66867 35.6274 6.21178 34.1935 7.20189 33.0474C8.24081 33.6186 9.43091 33.9497 10.6993 33.9497C14.7231 33.9497 17.9958 30.677 17.9958 26.6532C17.9958 26.0333 17.4939 25.5313 16.8739 25.5313C16.254 25.5313 15.7521 26.0333 15.7521 26.6532C15.7521 29.4389 13.4855 31.706 10.6993 31.706C7.91315 31.706 5.64658 29.4389 5.64658 26.6532C5.64658 26.6499 5.64652 26.6467 5.6464 26.6436C5.70798 25.0343 6.52404 23.5501 7.8681 22.6443L9.27929 43.8858ZM5.63882 26.5908C5.63878 26.5907 5.63881 26.5908 5.63889 26.5911L5.63882 26.5908Z" fill="#000000" stroke="#000000" stroke-width="0.5"/>
</svg>
