<svg width="57" height="57" viewBox="0 0 57 57" fill="none" xmlns="http://www.w3.org/2000/svg">
<g clip-path="url(#clip0_96_146)">
<path d="M28.875 0.375C18.1945 0.375 9.53906 9.03047 9.53906 19.7109C9.53906 26.7967 16.0219 34.3061 18.3826 40.9014C21.9035 50.7363 21.5133 56.625 28.875 56.625C36.3457 56.625 35.8447 50.7645 39.3674 40.9418C41.7352 34.3324 48.2109 26.7422 48.2109 19.7109C48.2109 9.03047 39.552 0.375 28.875 0.375ZM33.4312 48.1453L24.716 49.2334C24.4049 48.3334 24.0709 47.2805 23.6648 45.9059C23.6596 45.8883 23.6525 45.8689 23.649 45.8514L34.5264 44.4926C34.3717 45.0111 34.2064 45.5561 34.0623 46.0447C33.832 46.834 33.6264 47.5195 33.4312 48.1453ZM23.1375 44.1586C22.8176 43.1004 22.4572 41.9859 22.0564 40.8047H35.7076C35.4914 41.4357 35.2752 42.0686 35.0889 42.6662L23.1375 44.1586ZM28.875 53.1094C27.0943 53.1094 26.2752 52.9037 25.3646 50.9121L32.8143 49.9787C31.735 52.8861 30.9492 53.1094 28.875 53.1094ZM37.0875 37.2891H20.6818C19.8064 35.3906 18.7553 33.4922 17.7182 31.6342C15.4242 27.5297 13.0547 23.2846 13.0547 19.7109C13.0547 10.9869 20.151 3.89062 28.875 3.89062C37.599 3.89062 44.6953 10.9869 44.6953 19.7109C44.6953 23.2582 42.3223 27.5262 40.0266 31.6553C39 33.5062 37.9559 35.4012 37.0875 37.2891Z" fill="#000000"/>
<path d="M28.875 9.16406C23.0584 9.16406 18.3281 13.8943 18.3281 19.7109C18.3281 20.1961 18.7219 20.5898 19.207 20.5898C19.6922 20.5898 20.0859 20.1961 20.0859 19.7109C20.0859 14.8646 24.0287 10.9219 28.875 10.9219C29.3602 10.9219 29.7539 10.5281 29.7539 10.043C29.7539 9.55781 29.3584 9.16406 28.875 9.16406Z" fill="#628278"/>
</g>
<defs>
<clipPath id="clip0_96_146">
<rect width="56.25" height="56.25" fill="white" transform="translate(0.75 0.375)"/>
</clipPath>
</defs>
</svg>
