<svg width="40" height="50" viewBox="0 0 40 50" fill="none"
    xmlns="http://www.w3.org/2000/svg">
    <path d="M22.5012 27.5006H27.5012C28.1643 27.5006 28.8002 27.764 29.269 28.2329C29.7379 28.7017 30.0012 29.3376 30.0012 30.0007C30.0012 30.6637 29.7379 31.2996 29.269 31.7685C28.8002 32.2373 28.1643 32.5007 27.5012 32.5007H20.0012C19.6727 32.5017 19.3471 32.4377 19.0434 32.3124C18.7396 32.1872 18.4636 32.003 18.2313 31.7707C17.9989 31.5383 17.8148 31.2623 17.6895 30.9586C17.5643 30.6548 17.5003 30.3293 17.5013 30.0007V20.0004C17.5013 19.3374 17.7646 18.7015 18.2335 18.2326C18.7023 17.7638 19.3382 17.5004 20.0012 17.5004C20.6643 17.5004 21.3002 17.7638 21.769 18.2326C22.2379 18.7015 22.5012 19.3374 22.5012 20.0004V27.5006ZM4.67376 17.1529C4.10254 16.888 3.60722 16.4835 3.2335 15.9767C2.85977 15.4699 2.61966 14.8772 2.53531 14.2532C2.45097 13.6292 2.5251 12.994 2.75088 12.4062C2.97666 11.8184 3.34681 11.2969 3.8272 10.8898C4.30758 10.4828 4.88273 10.2032 5.49961 10.0769C6.11648 9.95069 6.75522 9.9818 7.3569 10.1674C7.95859 10.353 8.50385 10.6872 8.9424 11.139C9.38095 11.5908 9.69867 12.1458 9.86626 12.7528C10.7672 12.223 11.7084 11.7649 12.6813 11.3828C11.5879 10.623 10.7657 9.53392 10.3346 8.27424C9.9034 7.01456 9.88575 5.6501 10.2842 4.37969C10.6826 3.10928 11.4764 1.9993 12.5497 1.21151C13.623 0.423707 14.9199 -0.00074428 16.2513 9.79727e-07H23.7512C25.0826 -0.00074428 26.3795 0.423707 27.4528 1.21151C28.5261 1.9993 29.3199 3.10928 29.7183 4.37969C30.1167 5.6501 30.0991 7.01456 29.6679 8.27424C29.2368 9.53392 28.4146 10.623 27.3212 11.3828C28.2962 11.7678 29.2387 12.2253 30.1362 12.7528C30.3038 12.1458 30.6215 11.5908 31.0601 11.139C31.4986 10.6872 32.0439 10.353 32.6456 10.1674C33.2473 9.9818 33.886 9.95069 34.5029 10.0769C35.1198 10.2032 35.6949 10.4828 36.1753 10.8898C36.6557 11.2969 37.0258 11.8184 37.2516 12.4062C37.4774 12.994 37.5515 13.6292 37.4672 14.2532C37.3828 14.8772 37.1427 15.4699 36.769 15.9767C36.3953 16.4835 35.9 16.888 35.3287 17.1529C37.7734 20.0701 39.335 23.6243 39.8301 27.3981C40.3251 31.1719 39.7331 35.0086 38.1236 38.4576C36.514 41.9067 33.9537 44.8248 30.7434 46.8694C27.5331 48.9139 23.8061 50 20 50C16.1939 50 12.4669 48.9139 9.25659 46.8694C6.04628 44.8248 3.48601 41.9067 1.87644 38.4576C0.266877 35.0086 -0.32514 31.1719 0.169919 27.3981C0.664978 23.6243 2.22906 20.0701 4.67376 17.1529ZM20.0012 45.001C23.9795 45.001 27.7948 43.4206 30.6078 40.6075C33.4209 37.7944 35.0012 33.979 35.0012 30.0007C35.0012 26.0223 33.4209 22.2069 30.6078 19.3938C27.7948 16.5807 23.9795 15.0003 20.0012 15.0003C16.023 15.0003 12.2077 16.5807 9.39465 19.3938C6.58161 22.2069 5.00126 26.0223 5.00126 30.0007C5.00126 33.979 6.58161 37.7944 9.39465 40.6075C12.2077 43.4206 16.023 45.001 20.0012 45.001ZM16.2513 5.00011C15.9197 5.00011 15.6018 5.13181 15.3674 5.36624C15.1329 5.60066 15.0013 5.91861 15.0013 6.25014C15.0013 6.58167 15.1329 6.89962 15.3674 7.13404C15.6018 7.36847 15.9197 7.50017 16.2513 7.50017H23.7512C24.0828 7.50017 24.4007 7.36847 24.6351 7.13404C24.8696 6.89962 25.0012 6.58167 25.0012 6.25014C25.0012 5.91861 24.8696 5.60066 24.6351 5.36624C24.4007 5.13181 24.0828 5.00011 23.7512 5.00011H16.2513Z" fill="#FDFCFC"/>
</svg>
