<svg width="21" height="30" viewBox="0 0 21 30" fill="none" xmlns="http://www.w3.org/2000/svg">
<path d="M6.83192 25.183C2.98955 24.0115 0.187434 20.6003 0.00937328 16.458C-0.178059 11.5754 2.47411 8.53896 5.39806 5.28701C6.79444 3.72194 8.19081 2.18499 9.13734 0.563695C9.44661 0.0201407 10.1401 -0.157923 10.6743 0.151341C10.8524 0.245058 10.9836 0.404378 11.0866 0.563695V0.591809C12.0425 2.20373 13.4389 3.75943 14.8353 5.29637C17.7592 8.5577 20.4302 11.5847 20.224 16.4674C20.0553 20.6096 17.2251 24.0303 13.3827 25.1923C12.5486 25.4548 11.6677 25.5953 10.7961 25.6516V25.689C10.7961 28.032 8.82808 30 6.46643 30C6.09156 30 5.80104 29.7001 5.80104 29.3346C5.80104 28.9691 6.09156 28.6411 6.46643 28.6411C8.08772 28.6411 9.43724 27.301 9.43724 25.689V25.6516C8.5563 25.5953 7.69411 25.4641 6.84129 25.1923L6.83192 25.183ZM5.22 16.0738C4.96697 15.7926 4.96697 15.3709 5.22 15.1085C5.48241 14.8367 5.92287 14.8367 6.17591 15.1085L9.42786 18.3604V8.04226C9.42786 7.66739 9.72776 7.36751 10.112 7.36751C10.4962 7.36751 10.7961 7.66739 10.7961 8.04226V15.1928L14.0481 11.9409C14.3105 11.6878 14.7322 11.6878 15.004 11.9409C15.2476 12.2033 15.2476 12.625 15.004 12.9061L10.7961 17.114V23.3836C11.4521 23.3368 12.1269 23.2149 12.7361 23.0275C15.6694 22.1278 17.853 19.5413 17.9748 16.3643C18.1435 12.2408 15.6506 9.56047 13.1484 6.76773C12.0894 5.59627 11.0304 4.41544 10.112 3.16901C9.21232 4.41544 8.13458 5.60564 7.07559 6.76773C4.58273 9.56047 2.0805 12.2408 2.23982 16.3643C2.37102 19.5413 4.55462 22.1372 7.48794 23.0275C8.11584 23.2149 8.76248 23.3274 9.42786 23.3649V20.2629L5.22 16.0738Z" fill="#EEF8FF"/>
</svg>
