<svg width="46" height="46" viewBox="0 0 46 46" fill="none" xmlns="http://www.w3.org/2000/svg">
<path d="M22.9926 0C29.3248 0 35.0987 2.54436 39.2711 6.72749C43.4289 10.8819 46 16.6606 46 22.9712C46 29.2818 43.4142 35.0894 39.2711 39.2581L39.1095 39.3875C34.9812 43.47 29.2807 46 22.9926 46C16.7045 46 10.8866 43.4269 6.71416 39.2725C2.54169 35.1038 0 29.3394 0 22.9856C0 16.6319 2.54169 10.8963 6.71416 6.74188L6.86104 6.61251C11.0041 2.51563 16.7339 0.014389 23.0073 0.014389L22.9926 0ZM29.031 13.3113L22.9926 19.3775L16.9396 13.3113C15.9112 12.3194 14.3245 12.3194 13.3108 13.3113C12.3264 14.3319 12.3264 15.9419 13.3108 16.9337L19.3638 22.9569L13.3108 29.0087C12.3264 30.0294 12.3264 31.6393 13.3108 32.6312C14.3245 33.6375 15.9259 33.6375 16.9396 32.6312L22.9926 26.565L29.031 32.6312C30.0447 33.6375 31.6608 33.6375 32.6598 32.6312C33.6442 31.6393 33.6442 30.015 32.6598 29.0087L26.6068 22.9569L32.6598 16.9337C33.6442 15.9419 33.6442 14.2888 32.6598 13.3113C31.6608 12.3194 30.0447 12.3194 29.031 13.3113ZM35.6423 10.3212C32.4101 7.08686 27.9437 5.08876 22.9926 5.08876C18.0415 5.08876 13.678 7.07251 10.4458 10.2063L10.3137 10.3356C7.09616 13.57 5.06869 18.055 5.06869 22.9712C5.06869 27.8875 7.09616 32.4013 10.3137 35.6356C13.5606 38.87 18.0415 40.8969 22.978 40.8969C27.9144 40.8969 32.2925 38.9131 35.5247 35.7362L35.6276 35.6212C38.8892 32.3869 40.8873 27.9306 40.8873 22.9569C40.8873 17.9831 38.8892 13.5556 35.6276 10.3212H35.6423Z" fill="black"/>
</svg>
