<svg width="37" height="30" viewBox="0 0 37 30" fill="none" xmlns="http://www.w3.org/2000/svg">
<path d="M18.3416 0C22.3423 0 25.7928 2.94614 26.4004 6.90104C26.9965 6.6947 27.65 6.59151 28.3263 6.59151C30.1031 6.59151 31.731 7.32522 32.9117 8.50596C34.0924 9.65231 34.8146 11.2801 34.8146 13.0914C34.8146 14.9026 34.1383 16.3584 33.0493 17.5162L34.6083 19.0638C35.2846 19.7401 35.8005 20.5196 36.1444 21.3565C36.5112 22.2048 36.6832 23.0989 36.6832 24.0733V26.0107C36.6832 26.4921 36.5341 27.0424 36.2246 27.4551C35.9151 27.9021 35.4451 28.2346 34.8376 28.2919C34.7917 28.2919 34.7459 28.2919 34.7 28.2919H33.2097V28.8307C33.2097 29.4727 32.6824 30 32.0175 30H4.6886C4.02372 30 3.47344 29.4956 3.47344 28.8307V28.2919H1.9832C1.9832 28.2919 1.89148 28.2919 1.83417 28.2919C1.23806 28.2346 0.768071 27.9021 0.447093 27.4551C0.160506 27.0538 0 26.5036 0 26.0107V24.0733C0 23.0989 0.183417 22.2048 0.538785 21.3565C1.18074 19.786 2.45319 18.697 3.62247 17.5162C2.53344 16.3584 1.88003 14.8109 1.88003 13.0914C1.88003 11.2801 2.6137 9.66377 3.78297 8.50596C4.96371 7.31376 6.5915 6.59151 8.37981 6.59151C9.04469 6.59151 9.68666 6.6947 10.2942 6.90104C10.9018 2.94614 14.3408 0 18.3645 0H18.3416ZM18.3416 27.6385H22.0214V22.2392C22.0214 21.8494 22.3309 21.5399 22.7206 21.5399C23.1104 21.5399 23.4428 21.8494 23.4428 22.2392V25.4031H26.5151C26.5609 25.3114 26.5838 25.2197 26.5838 25.1051V22.5831C26.5838 19.1784 24.3141 17.5965 22.1131 15.3726C20.9782 15.9687 19.6943 16.3011 18.3531 16.3011C17.0118 16.3011 15.705 15.9572 14.593 15.3726C12.3691 17.5965 10.1223 19.1784 10.1223 22.5831V25.1051C10.1223 25.2197 10.1338 25.3114 10.1681 25.4031H13.2404V22.2392C13.2404 21.8494 13.5613 21.5399 13.974 21.5399C14.3867 21.5399 14.6733 21.8494 14.6733 22.2392C14.6733 24.039 14.6733 25.8388 14.6733 27.6385H18.3531H18.3416ZM18.3416 13.9167C21.494 13.9167 24.1192 11.3833 24.1192 8.13912C24.1192 4.89495 21.517 2.35007 18.3416 2.35007C15.1662 2.35007 12.5525 4.95227 12.5525 8.13912C12.5525 11.326 15.2006 13.9167 18.3416 13.9167ZM5.86934 27.6385H9.31982C8.88421 27.478 8.5174 27.1799 8.2652 26.8131C7.90983 26.3316 7.72641 25.7012 7.72641 25.1051V22.5831C7.72641 21.5284 7.89837 20.5197 8.23081 19.5797C7.26788 19.5567 6.36227 19.3389 5.54836 18.9492C4.5625 19.935 3.25566 20.9552 2.71688 22.2735C2.49907 22.8238 2.37295 23.4199 2.37295 24.0848V25.9304H4.4364V23.8326C4.4364 23.4429 4.76881 23.1104 5.15857 23.1104C5.54833 23.1104 5.86934 23.4429 5.86934 23.8326V27.6499V27.6385ZM10.2942 9.44597C10.0764 9.33134 9.8357 9.22817 9.59497 9.15939C9.20521 9.04475 8.80397 8.97593 8.35689 8.97593C7.22201 8.97593 6.20175 9.43446 5.44516 10.1796C4.71149 10.9362 4.2415 11.9679 4.2415 13.0914C4.2415 14.2148 4.71149 15.2464 5.44516 15.9801C6.20175 16.7367 7.21054 17.1838 8.35689 17.1838C8.8269 17.1838 9.25104 17.1379 9.67519 16.9774C10.5579 15.8999 11.6355 14.9484 12.6213 13.974C11.3833 12.7245 10.5693 11.1426 10.2828 9.4345L10.2942 9.44597ZM30.8139 27.6385V23.8212C30.8139 23.4314 31.1234 23.099 31.5132 23.099C31.9029 23.099 32.2354 23.4314 32.2354 23.8212V25.919H34.2988V24.0733C34.2988 23.4084 34.1842 22.8124 33.9549 22.2621C33.7371 21.7119 33.3817 21.2075 32.9117 20.749L31.1119 18.9492C30.3095 19.3389 29.4038 19.5682 28.4409 19.5797C28.7848 20.5311 28.9568 21.5284 28.9568 22.5831V25.1051C28.9568 25.7012 28.7734 26.3202 28.418 26.8131C28.1429 27.1914 27.7875 27.478 27.3519 27.6385H30.8139ZM26.389 9.44597C26.0795 11.2572 25.3343 12.6786 24.0389 13.9855C25.0363 14.9484 26.1253 15.9113 26.9965 16.9889C27.1226 17.0348 27.3748 17.1379 27.5009 17.1379C27.7531 17.1838 28.0283 17.1952 28.3263 17.1952C29.4497 17.1952 30.4814 16.7482 31.2266 15.9916C31.9717 15.2579 32.4302 14.2491 32.4302 13.1028C32.4302 11.9564 31.9717 10.9476 31.2266 10.1911C30.4814 9.44593 29.4497 8.98741 28.3263 8.98741C27.8792 8.98741 27.4665 9.05616 27.0768 9.17079C26.8361 9.23957 26.6068 9.35421 26.4004 9.45738L26.389 9.44597Z" fill="#EEF8FF"/>
</svg>
