<svg width="34" height="30" viewBox="0 0 34 30" fill="none" xmlns="http://www.w3.org/2000/svg">
<path d="M0.759135 22.0244H7.80695C8.23806 22.0244 8.56608 22.3524 8.56608 22.7742V29.2596C8.56608 29.6532 8.23806 30 7.80695 30H0.759135C0.346764 30 0 29.6532 0 29.2596V22.7742C0 22.3524 0.346764 22.0244 0.759135 22.0244ZM19.344 4.7048C17.5633 6.59795 15.5201 8.24743 13.2708 9.61575C10.1406 11.5183 6.55108 12.8584 2.69916 13.4395C2.00563 13.5332 1.3777 13.0646 1.26523 12.3898C1.16214 11.6776 1.64011 11.0591 2.3149 10.9466C5.84817 10.4124 9.10963 9.20345 11.9869 7.46024C14.2362 6.11067 16.2418 4.41428 17.9662 2.493H12.7085C12.015 2.493 11.462 1.94009 11.462 1.24656C11.462 0.553025 12.015 0 12.7085 0H20.5998C21.2933 0 21.8651 0.562397 21.8651 1.24656V9.13777C21.8651 9.8313 21.2933 10.3936 20.5998 10.3936C19.9063 10.3936 19.3533 9.8313 19.3533 9.13777V4.7048H19.344ZM25.4733 4.97662H32.5211C32.9522 4.97662 33.2802 5.32331 33.2802 5.71694V29.2503C33.2802 29.6439 32.9522 29.9906 32.5211 29.9906H25.4733C25.0609 29.9906 24.7141 29.6439 24.7141 29.2503V5.71694C24.7141 5.32331 25.0609 4.97662 25.4733 4.97662ZM31.7713 6.48551H26.223V28.4911H31.7713V6.48551ZM13.1115 13.5052C12.6991 13.5052 12.3524 13.8426 12.3524 14.255V29.2596C12.3524 29.6532 12.6991 30 13.1115 30H20.1781C20.5905 30 20.9185 29.6532 20.9185 29.2596V14.255C20.9185 13.8426 20.5905 13.5052 20.1781 13.5052H13.1115ZM19.4002 15.0047V28.4911H13.8519V15.0047H19.4002ZM7.04781 23.5426H1.49954V28.4911H7.04781V23.5426Z" fill="#EEF8FF"/>
</svg>
