<svg width="34" height="30" viewBox="0 0 34 30" fill="none" xmlns="http://www.w3.org/2000/svg">
<path d="M24.7617 29.969H5.45614C2.44586 29.969 0 27.5231 0 24.5128V22.9241C0 19.9138 2.44586 17.4679 5.45614 17.4679H24.7617C25.5143 17.4679 26.1205 18.0742 26.1205 18.8267C26.1205 19.5793 25.5143 20.1856 24.7617 20.1856H5.45614C3.951 20.1856 2.72806 21.4085 2.72806 22.9136V24.5024C2.72806 26.0075 3.951 27.2304 5.45614 27.2304H24.7617C25.5143 27.2304 26.1205 27.8367 26.1205 28.5892C26.1205 29.3418 25.5143 29.9481 24.7617 29.9481V29.969Z" fill="#EEF8FF"/>
<path d="M8.75908 5.03983C8.56049 5.03983 8.35143 4.99805 8.16329 4.90398C7.48389 4.5695 7.20166 3.75421 7.53614 3.07481C8.45595 1.18293 10.3374 0.0122375 12.4383 0.0122375H32.0888C32.8414 0.0122375 33.4476 0.618495 33.4476 1.37107C33.4476 2.12364 32.8414 2.72986 32.0888 2.72986H12.4383C11.3826 2.72986 10.4524 3.3152 9.98199 4.26636C9.74159 4.74717 9.2608 5.0294 8.75908 5.0294V5.03983Z" fill="#EEF8FF"/>
<path d="M1.83962 22.3276C1.67238 22.3276 1.49467 22.2963 1.32743 22.2335C0.627124 21.9513 0.292646 21.1569 0.57486 20.4671L7.55708 3.06388C7.83929 2.36357 8.63367 2.01864 9.32353 2.3113C10.0238 2.59352 10.3583 3.3879 10.0761 4.07776L3.09389 21.481C2.88484 22.014 2.37268 22.3381 1.82916 22.3381L1.83962 22.3276Z" fill="#EEF8FF"/>
<path d="M25.0962 29.9895C24.9289 29.9895 24.7512 29.9581 24.584 29.8954C23.8837 29.6132 23.5492 28.8189 23.8314 28.1185L30.8136 10.7153C31.0959 10.015 31.8902 9.6701 32.5905 9.96276C33.2908 10.245 33.6253 11.0393 33.3431 11.7396L26.3609 29.1429C26.1519 29.6759 25.6397 30 25.0962 30V29.9895Z" fill="#EEF8FF"/>
<path d="M24.7617 20.1957C24.584 20.1957 24.4063 20.1643 24.2391 20.0912C23.5492 19.7985 23.2147 19.0041 23.5074 18.3038L30.8345 0.837855C31.1272 0.147998 31.9216 -0.186491 32.6219 0.106176C33.3117 0.398842 33.6462 1.19325 33.3535 1.89356L26.0264 19.3595C25.8069 19.8821 25.3052 20.1957 24.7722 20.1957H24.7617Z" fill="#EEF8FF"/>
<path d="M23.821 23.122H5.24709C4.8708 23.122 4.56769 22.8189 4.56769 22.4426C4.56769 22.0664 4.8708 21.7632 5.24709 21.7632H23.821C24.1973 21.7632 24.5004 22.0664 24.5004 22.4426C24.5004 22.8189 24.1973 23.122 23.821 23.122Z" fill="#EEF8FF"/>
<path d="M23.821 25.6514H5.24709C4.8708 25.6514 4.56769 25.3483 4.56769 24.972C4.56769 24.5957 4.8708 24.2926 5.24709 24.2926H23.821C24.1973 24.2926 24.5004 24.5957 24.5004 24.972C24.5004 25.3483 24.1973 25.6514 23.821 25.6514Z" fill="#EEF8FF"/>
</svg>
