<svg width="26" height="30" viewBox="0 0 26 30" fill="none" xmlns="http://www.w3.org/2000/svg">
<path d="M16.224 11.9056H20.9487C21.5955 11.9056 22.1205 12.4305 22.1205 13.0961C22.1205 13.4805 21.933 13.8367 21.6236 14.0429L1.90916 29.7452C1.40294 30.1483 0.662342 30.0639 0.249866 29.5577C-0.059491 29.1546 -0.0781987 28.6202 0.174912 28.1984L7.78697 14.2679H3.28718C2.64034 14.2679 2.10605 13.7523 2.10605 13.0961C2.10605 12.7961 2.20914 12.543 2.3685 12.3462L10.6555 0.515612C10.8712 0.187506 11.2461 0.0187672 11.6117 0.0187672V0H23.8547C24.511 0 25.0359 0.52497 25.0359 1.17181C25.0359 1.50929 24.9141 1.79054 24.7078 2.00615L16.224 11.8962V11.9056ZM17.5645 14.2679H13.6553V14.2492C13.3835 14.2492 13.121 14.1648 12.9054 13.9773C12.3992 13.5555 12.3429 12.8149 12.7741 12.3274L21.2955 2.37174H12.2398L5.55584 11.915H9.80244C9.98993 11.915 10.1774 11.9524 10.3556 12.0462C10.9274 12.3649 11.1336 13.0867 10.843 13.6586L5.0402 24.2799L17.5832 14.2773L17.5645 14.2679Z" fill="#000000"/>
</svg>
