<svg width="26" height="30" viewBox="0 0 26 30" fill="none" xmlns="http://www.w3.org/2000/svg">
<path d="M17.2834 5.90485C17.9583 6.77652 18.4925 7.74191 18.8206 8.76354C20.1797 9.21344 21.4543 9.99141 22.5322 11.0787C24.4255 12.9626 25.3722 15.437 25.3722 17.9302C25.3722 20.4233 24.4442 22.8227 22.5884 24.6879L22.5322 24.7629C20.6483 26.6469 18.1645 27.5841 15.6994 27.5841C13.5906 27.5841 11.4629 26.9093 9.71021 25.5127L8.54799 26.675L9.88829 28.0246C10.3288 28.4745 10.3288 29.2057 9.88829 29.6555C9.42902 30.1148 8.69795 30.1148 8.24805 29.6555L6.90775 28.334L5.79238 29.4493C5.34249 29.9086 4.61142 29.9086 4.16152 29.4493C3.70226 28.9994 3.70226 28.2684 4.16152 27.8185L5.27689 26.6843L3.95529 25.3628C3.49603 24.9129 3.49603 24.1818 3.95529 23.7319C4.39582 23.282 5.13631 23.282 5.57683 23.7319L6.91713 25.0629L8.09811 23.8913C7.40452 23.029 6.88899 22.0636 6.5422 21.0513C5.18314 20.5827 3.90848 19.8047 2.8306 18.7268L2.81184 18.7081C0.927907 16.8148 0 14.3591 0 11.8753C0 9.39153 0.937298 6.9265 2.8306 5.04257C4.71454 3.13989 7.19831 2.20258 9.66335 2.20258C11.791 2.20258 13.8999 2.88682 15.6432 4.27399L17.6021 2.31505H15.4089C14.7715 2.31505 14.2467 1.81831 14.2467 1.16222C14.2467 0.506122 14.7715 0 15.4089 0H20.4327L20.4795 0.0374706H20.592L20.6858 0.0656165H20.7045C20.7514 0.0843621 20.7982 0.0937234 20.8545 0.112469L20.9013 0.140558L20.9295 0.159322C20.9295 0.159322 21.0232 0.196847 21.0607 0.253084L21.0982 0.271791L21.1356 0.299936L21.1544 0.318643L21.2013 0.365553L21.2481 0.403023L21.2669 0.440494L21.295 0.478022L21.3231 0.506111C21.3512 0.552975 21.3794 0.599861 21.3981 0.646725H21.4168L21.4356 0.693578L21.4544 0.721724C21.4731 0.768588 21.4918 0.815436 21.5012 0.881045V0.899809L21.5293 1.0029V1.10598L21.5574 1.1716V6.18602C21.5574 6.814 21.0513 7.34824 20.4046 7.34824C19.7579 7.34824 19.2517 6.814 19.2517 6.18602V3.99282L17.3022 5.94232L17.2834 5.90485ZM19.3361 11.5098V11.8847C19.3361 14.3779 18.3988 16.8429 16.5149 18.7268C14.6216 20.6108 12.1378 21.5668 9.66335 21.5668C9.54151 21.5668 9.41964 21.5668 9.28842 21.5481C9.57898 22.0917 9.96329 22.6165 10.4319 23.0664L10.4788 23.1227L10.4975 23.1414C11.941 24.5849 13.8155 25.2878 15.6994 25.2878C17.5834 25.2878 19.4767 24.5848 20.9107 23.1321L20.9669 23.0758C22.3729 21.6605 23.0664 19.786 23.0664 17.9302C23.0664 16.0369 22.3448 14.1342 20.9107 12.7095C20.4421 12.2409 19.9078 11.8378 19.3455 11.5191L19.3361 11.5098ZM17.0397 11.8847C17.0397 11.4723 17.0023 11.0599 16.946 10.6475C16.5336 10.5725 16.1118 10.5444 15.6994 10.5444C13.8155 10.5444 11.9222 11.2755 10.4788 12.7001C9.03537 14.1342 8.32305 16.0181 8.32305 17.9208C8.32305 18.3332 8.36052 18.7362 8.41676 19.1486C8.83853 19.2142 9.25095 19.2611 9.66335 19.2611C11.5567 19.2611 13.4406 18.53 14.8746 17.1054C16.318 15.6619 17.0397 13.7686 17.0397 11.8847ZM16.0744 8.24805C15.7651 7.70443 15.3714 7.17954 14.9121 6.7109L14.8746 6.68281L14.8559 6.65466C13.4218 5.23 11.5473 4.50831 9.66335 4.50831C7.77942 4.50831 5.88612 5.2394 4.45208 6.68281C3.00867 8.12622 2.29635 10.0008 2.29635 11.8941C2.29635 13.7874 3.01804 15.6713 4.45208 17.1147C4.93946 17.5928 5.45496 17.9864 6.0267 18.305C6.0267 18.1738 6.0267 18.0426 6.0267 17.9302C6.0267 15.437 6.97337 12.9626 8.85731 11.0787C10.7506 9.18535 13.2438 8.22929 15.7088 8.22929C15.8307 8.22929 15.9712 8.22931 16.0837 8.24805H16.0744Z" fill="#EEF8FF"/>
</svg>
