<svg width="76" height="75" viewBox="0 0 76 75" fill="none" xmlns="http://www.w3.org/2000/svg">
<path d="M21.1995 22.3002L21.1101 22.2555L21.0654 22.3449L20.017 24.4418L19.9723 24.5312L20.0617 24.5759L24.9965 27.0433L25.0176 27.0538H25.0412H30.0079H30.1079V26.9538V24.6101V24.5101H30.0079H25.6186L21.1995 22.3002Z" fill="#000000" stroke="#000000" stroke-width="0.2"/>
<path d="M51.2766 26.4263C50.4896 26.8191 49.5818 26.9065 48.736 26.6646L42.0389 24.7512C41.7246 24.6598 41.3989 24.6127 41.0729 24.6127H33.6938C32.5177 24.6127 31.4211 25.1998 30.7688 26.1786C30.7612 26.1896 30.7534 26.2004 30.7454 26.2112L26.505 32.1308L51.2766 26.4263ZM51.2766 26.4263L52.8054 25.6621L51.2766 26.4263ZM33.688 22.1661H33.6879C31.6979 22.1661 29.8374 23.1608 28.7322 24.8159L23.1153 32.6578L23.1151 32.6581C22.9796 32.8486 22.8992 33.0728 22.8827 33.306C22.8661 33.5392 22.9141 33.7723 23.0213 33.9801C23.1286 34.1879 23.2909 34.362 23.4906 34.4837C23.6901 34.6053 23.9194 34.6699 24.1533 34.6699H29.9302C31.1386 34.6699 32.2685 34.0647 32.9386 33.0596L33.8907 31.6316L33.8075 31.5762L33.8907 31.6316C34.0901 31.3325 34.4233 31.1543 34.7825 31.1543H36.3345C36.5462 31.1543 36.7503 31.2184 36.9245 31.3344L54.8504 43.2863L54.9059 43.2031L54.8504 43.2863C55.6553 43.8228 55.8368 44.882 55.2562 45.6559L55.2546 45.6582L55.1882 45.752C55.188 45.7524 55.1877 45.7528 55.1874 45.7531C54.6721 46.4391 53.7483 46.6211 53.0125 46.1795L53.0125 46.1795L43.5597 40.5081C43.4163 40.422 43.2572 40.3648 43.0916 40.3401C42.926 40.3155 42.7572 40.3237 42.5949 40.3643C42.4324 40.405 42.2796 40.4774 42.1452 40.577C42.0108 40.6766 41.8973 40.8017 41.8111 40.9452C41.725 41.0887 41.668 41.2478 41.6434 41.4134C41.6188 41.5789 41.627 41.7475 41.6676 41.9098C41.7082 42.0722 41.7804 42.2252 41.88 42.3597C41.9797 42.4942 42.1049 42.6076 42.2484 42.6937L51.7012 48.3651C53.5398 49.4685 55.9389 48.9975 57.2251 47.2819L57.2254 47.2816L57.2931 47.1904C57.2931 47.1904 57.2931 47.1904 57.2931 47.1904C58.7312 45.2732 58.2557 42.4994 56.2615 41.1698L56.206 41.253L56.2614 41.1698L38.3357 29.2223C37.7394 28.8232 37.0421 28.6151 36.33 28.6151H34.778C33.5699 28.6151 32.4399 29.2201 31.7698 30.2252L31.7697 30.2254L30.8225 31.6534C30.623 31.9526 30.2898 32.1308 29.9304 32.1308H26.628L30.8257 26.2707C30.8259 26.2705 30.826 26.2703 30.8262 26.2701C30.8343 26.259 30.8428 26.2475 30.8511 26.2353L30.8512 26.2353L30.852 26.234C31.4857 25.2831 32.5511 24.7127 33.6938 24.7127H41.0729C41.3893 24.7127 41.7057 24.7584 42.011 24.8472L42.0115 24.8473L48.7085 26.7608C49.5787 27.0096 50.5121 26.9197 51.3213 26.5158L51.3213 26.5158L52.8487 25.7523C53.0035 25.681 53.1424 25.5794 53.2572 25.4534C53.3724 25.327 53.4609 25.1785 53.5176 25.0172C53.5742 24.8558 53.5977 24.6846 53.5868 24.5139C53.5759 24.3432 53.5307 24.1768 53.454 24.024C53.3773 23.8712 53.2705 23.7351 53.1401 23.6244C53.0098 23.5137 52.8585 23.4304 52.6952 23.3794C52.5319 23.3285 52.3601 23.311 52.19 23.3279C52.0205 23.3447 51.856 23.3951 51.7063 23.4767L50.1788 24.2406L50.1788 24.2406C49.9391 24.3607 49.6665 24.3862 49.4094 24.3113L49.4089 24.3111L42.7118 22.3977C42.7117 22.3977 42.7117 22.3977 42.7117 22.3977C42.1797 22.2451 41.6271 22.169 41.0729 22.169C41.0729 22.169 41.0729 22.169 41.0729 22.169L33.688 22.1661ZM55.3362 45.7159L55.2682 45.812C54.7224 46.5398 53.7413 46.7335 52.9611 46.2652L55.3362 45.7159ZM31.853 30.2807L30.9057 31.7089C30.6877 32.0359 30.3232 32.2308 29.9304 32.2308H26.5563L31.853 30.2807ZM51.7526 48.2794C53.5472 49.3563 55.8896 48.8966 57.1451 47.222L51.7526 48.2794Z" fill="#000000" stroke="#000000" stroke-width="0.2"/>
<path d="M61.0575 36.4812L61.0002 36.3993L60.9182 36.4567L55.0589 40.5582L54.9769 40.6156L55.0343 40.6975L56.3801 42.6201L56.4374 42.702L56.5193 42.6447L62.3787 38.5431L62.4606 38.4858L62.4033 38.4038L61.0575 36.4812Z" fill="#000000" stroke="#000000" stroke-width="0.2"/>
<path d="M13.3293 36.0147L13.2586 35.944L13.1879 36.0147L11.5309 37.6718L11.4601 37.7426L11.5309 37.8133L16.2184 42.5008L16.2891 42.5715L16.3598 42.5008L18.0168 40.8437L18.0875 40.7729L18.0168 40.7022L13.3293 36.0147Z" fill="#000000" stroke="#000000" stroke-width="0.2"/>
<path d="M18.617 52.7532C16.9869 51.6769 16.526 49.4459 17.6019 47.8128L17.6019 47.8128L22.2481 40.7636C22.2482 40.7636 22.2482 40.7636 22.2482 40.7636C22.7525 39.9981 23.5089 39.4881 24.3393 39.2734L24.3312 39.2649L24.5086 39.2281C25.4063 39.0416 26.3765 39.1907 27.1974 39.7278L27.1978 39.7281L27.3218 39.81L27.322 39.8102L27.2669 39.8936C28.8569 40.938 29.3071 43.111 28.2602 44.6999L18.617 52.7532ZM18.617 52.7532C18.6217 52.7568 18.6257 52.7593 18.6283 52.7608C18.6291 52.7613 18.6299 52.7617 18.6307 52.7621M18.617 52.7532L18.6307 52.7621M18.6307 52.7621L18.7435 52.8353L18.6307 52.7621ZM25.7627 41.8293L25.7626 41.8323L25.8111 41.8638L25.9304 41.9411C25.9304 41.9412 25.9305 41.9412 25.9305 41.9412C26.4246 42.2643 26.5488 42.863 26.2222 43.3588L26.3057 43.4138L26.2222 43.3588L21.5757 50.4127C21.2493 50.9082 20.6344 51.0327 20.1394 50.709L20.139 50.7087L20.0199 50.6318C20.0198 50.6317 20.0197 50.6316 20.0196 50.6316C19.526 50.3084 19.4017 49.7053 19.7283 49.2095L19.6448 49.1545L19.7283 49.2095L24.3745 42.1554C24.6906 41.6761 25.2771 41.544 25.7627 41.8293Z" fill="#000000" stroke="#000000" stroke-width="0.2"/>
<path d="M27.1725 43.8064L27.1725 43.8064C26.2649 43.9967 25.4277 44.5302 24.8846 45.3599L24.8846 45.3599L21.6758 50.2625L21.7591 50.317L21.6758 50.2625C20.5899 51.9217 21.062 54.1811 22.721 55.2667C24.3797 56.3523 26.6396 55.8802 27.7252 54.2215L30.9343 49.3192L30.9343 49.3192C32.0199 47.6602 31.5481 45.4004 29.8891 44.315L29.8345 44.3986L29.8891 44.315C29.0594 43.7722 28.0806 43.6168 27.1725 43.8064ZM28.4978 46.4413L28.4978 46.4413C29.0115 46.7773 29.1442 47.4139 28.8076 47.9282L25.5988 52.8303C25.2623 53.3442 24.6258 53.4765 24.112 53.1404C23.5979 52.8039 23.4657 52.168 23.8023 51.6538L23.7186 51.599L23.8023 51.6538L27.0111 46.7511C27.3476 46.237 27.9836 46.1047 28.4978 46.4413Z" fill="#000000" stroke="#000000" stroke-width="0.2"/>
<path d="M30.2894 47.4409L30.2894 47.4409C31.1959 47.2461 32.1782 47.3917 33.0107 47.9308C34.6746 49.0085 35.1588 51.2643 34.084 52.9301L31.9967 56.1713L31.9967 56.1714C30.9221 57.8374 28.6612 58.3225 26.9969 57.2448C25.3327 56.1672 24.8488 53.9111 25.9235 52.2453L30.2894 47.4409ZM30.2894 47.4409C29.383 47.636 28.5484 48.1705 28.0109 49.0043L28.0108 49.0043L25.9235 52.2452L30.2894 47.4409ZM31.6249 50.0674L31.6249 50.0674C32.1408 50.4014 32.2803 51.0381 31.9477 51.554L29.8557 54.7903L29.8556 54.7904C29.5225 55.3067 28.894 55.4424 28.378 55.1083L28.3237 55.1922L28.378 55.1083C27.8627 54.7746 27.7266 54.1382 28.0599 53.6217L28.0599 53.6216L30.1472 50.3853C30.4801 49.8692 31.1093 49.7335 31.6249 50.0674Z" fill="#000000" stroke="#000000" stroke-width="0.2"/>
<path d="M20.2852 41.8321L20.2852 41.8321C19.7694 41.498 19.1407 41.6339 18.8075 42.1503C18.8075 42.1503 18.8075 42.1503 18.8075 42.1503L16.7202 45.3864C16.3872 45.9029 16.523 46.5396 17.0386 46.8733L17.0386 46.8733C17.5539 47.2071 18.1828 47.0715 18.516 46.5551L20.2852 41.8321ZM20.2852 41.8321C20.8005 42.1658 20.9366 42.8023 20.6033 43.319C20.6033 43.319 20.6033 43.319 20.6033 43.319L18.516 46.5551L20.2852 41.8321ZM18.9453 39.2059L18.9453 39.206C18.0389 39.401 17.2042 39.9356 16.6665 40.7693L16.6665 40.7693L14.5792 44.0103C14.5792 44.0103 14.5791 44.0103 14.5791 44.0103C13.5048 45.6763 13.9932 47.932 15.6572 49.0096L15.6573 49.0096C17.321 50.0839 19.5786 49.6011 20.6525 47.9361L20.5685 47.8819L20.6526 47.9361L22.7399 44.6997C23.8144 43.0339 23.3306 40.7736 21.6666 39.6961C20.8338 39.1567 19.8516 39.0114 18.9453 39.2059Z" fill="#000000" stroke="#000000" stroke-width="0.2"/>
<path d="M40.5061 45.0081L40.5057 45.0081C40.2316 45.0165 39.9675 45.1132 39.7527 45.2838C39.538 45.4543 39.384 45.6897 39.3137 45.9547C39.2434 46.2198 39.2605 46.5006 39.3625 46.7551C39.4644 47.0095 39.6457 47.2242 39.8793 47.3674C39.8795 47.3675 39.8796 47.3676 39.8797 47.3677L46.4707 51.4916L46.4708 51.4917C48.5949 52.8191 51.4134 52.2706 52.8852 50.2434L52.8043 50.1846L52.8852 50.2434L53.8913 48.8575C53.9947 48.7228 54.0701 48.5687 54.1131 48.4044C54.1562 48.2396 54.1659 48.0681 54.1415 47.8995C54.1171 47.731 54.0591 47.569 53.9711 47.4232C53.883 47.2775 53.7666 47.151 53.6287 47.051C53.4909 46.951 53.3344 46.8796 53.1685 46.8411C53.0026 46.8027 52.8307 46.7977 52.6629 46.8268C52.495 46.856 52.3348 46.9185 52.1916 47.0106C52.0488 47.1025 51.9258 47.222 51.8298 47.3621L50.8235 48.748L50.8235 48.748C50.1251 49.7102 48.8301 49.9609 47.8217 49.3308L41.2312 45.212C41.231 45.2119 41.2308 45.2117 41.2306 45.2116C41.0152 45.0726 40.7627 45.0013 40.5061 45.0081Z" fill="#000000" stroke="#000000" stroke-width="0.2"/>
<path d="M49.3701 53.7584L49.3701 53.7583L50.4083 52.327C50.5117 52.1923 50.5871 52.0385 50.6301 51.8742C50.6732 51.7094 50.6829 51.5376 50.6585 51.369C50.6341 51.2005 50.5761 51.0385 50.4881 50.8927C50.4 50.747 50.2836 50.6205 50.1457 50.5205C50.0079 50.4205 49.8514 50.3491 49.6855 50.3106C49.5195 50.2721 49.3476 50.2675 49.1799 50.2966C49.0122 50.3257 48.8519 50.3879 48.7086 50.4801C48.5658 50.572 48.4428 50.6915 48.3468 50.8316L47.3085 52.2589L47.3084 52.259C46.5876 53.2517 45.2631 53.5396 44.1981 52.931C44.198 52.931 44.198 52.931 44.198 52.931L38.8426 49.8689C38.6226 49.7396 38.3685 49.6785 38.1134 49.6954C37.8376 49.7125 37.575 49.819 37.365 49.9984C37.155 50.1778 37.0089 50.4205 36.949 50.6901C36.889 50.9598 36.9183 51.2418 37.0324 51.4933C37.1464 51.7446 37.3389 51.9519 37.581 52.0843L42.9314 55.1414C42.9314 55.1414 42.9314 55.1414 42.9314 55.1414C45.1084 56.3855 47.8971 55.7875 49.3701 53.7584Z" fill="#000000" stroke="#000000" stroke-width="0.2"/>
<path d="M32.804 53.3548L32.7106 53.3191L32.6749 53.4126L31.8373 55.605L31.8016 55.6984L31.895 55.7341L38.9262 58.4211L38.9262 58.4211C40.7471 59.1169 42.8261 58.4456 43.8934 56.8126L43.8935 56.8126L44.9188 55.2424L44.9734 55.1588L44.8899 55.1041L42.9261 53.8175L42.8425 53.7627L42.7877 53.8463L41.7576 55.4167L41.7575 55.4168C41.3388 56.0569 40.5495 56.3147 39.8352 56.0419L32.804 53.3548Z" fill="#000000" stroke="#000000" stroke-width="0.2"/>
<path d="M15.8861 16.3073L15.8857 16.3073L14.8722 16.8979C14.8722 16.898 14.8721 16.8981 14.8721 16.8982L2.56757 36.2333L2.56756 36.2333C2.47413 36.3801 2.41182 36.5445 2.3845 36.7165C2.35719 36.8884 2.36546 37.0642 2.40878 37.2328C2.45211 37.4014 2.52958 37.5593 2.63639 37.6967C2.74321 37.8342 2.8771 37.9482 3.02976 38.0318L3.02996 38.0319L9.48439 41.5475C9.4844 41.5475 9.48441 41.5475 9.48441 41.5475C9.76543 41.7007 10.0938 41.7422 10.4042 41.6639C10.7145 41.5857 10.9839 41.3933 11.1587 41.1252L11.1587 41.1251L23.4496 22.2381L23.4497 22.238C23.5417 22.096 23.6046 21.9373 23.6345 21.7706C23.6644 21.604 23.6607 21.4331 23.6237 21.2679C23.5867 21.1027 23.5171 20.9466 23.419 20.8087C23.3209 20.6707 23.1962 20.5538 23.0523 20.4646L23.0521 20.4645L16.6113 16.4957C16.394 16.3616 16.1413 16.2958 15.8861 16.3073ZM5.44428 36.4472L16.343 19.318L20.6076 21.9451L9.66812 38.7504L5.44428 36.4472Z" fill="#000000" stroke="#000000" stroke-width="0.2"/>
<path d="M58.1373 16.3073L58.1374 16.3073C58.3506 16.3083 58.5603 16.3623 58.7472 16.4657C58.9339 16.569 59.0916 16.7177 59.2058 16.898L71.5104 36.2329L71.5105 36.233C71.6037 36.3802 71.6657 36.545 71.6927 36.7171C71.7197 36.8892 71.711 37.0652 71.6672 37.2338C71.6234 37.4024 71.5454 37.5602 71.4381 37.6974C71.3309 37.8346 71.1965 37.9483 71.0435 38.0315L58.1373 16.3073ZM58.1373 16.3073C57.9006 16.3065 57.6684 16.3716 57.4668 16.4955L57.4667 16.4956L51.0258 20.4641L51.0256 20.4642C50.8817 20.5533 50.757 20.6703 50.6589 20.8082C50.5608 20.9462 50.4912 21.1023 50.4542 21.2675C50.4172 21.4327 50.4135 21.6036 50.4434 21.7702C50.4733 21.9368 50.5362 22.0958 50.6283 22.2378L50.6284 22.238L62.9192 41.1247L62.9193 41.1248C63.094 41.3929 63.3634 41.5853 63.6738 41.6635C63.9841 41.7418 64.3125 41.7002 64.5935 41.5471L71.0434 38.0315L58.1373 16.3073ZM58.1369 16.4073C57.9189 16.4065 57.7049 16.4665 57.5191 16.5807L58.1369 16.4073ZM53.4703 21.9452L57.7303 19.3182L68.6336 36.4474L64.4098 38.7506L53.4703 21.9452Z" fill="#000000" stroke="#000000" stroke-width="0.2"/>
</svg>
