<svg width="34" height="30" viewBox="0 0 34 30" fill="none" xmlns="http://www.w3.org/2000/svg">
<path d="M15.8196 29.6524L3.04601 16.8998C1.71848 15.5618 0.756791 13.9625 0.307313 12.2587C-0.131712 10.628 -0.121255 8.86145 0.474565 7.08444C0.997214 5.52694 1.89617 4.13671 3.0669 2.98689C4.21673 1.84751 5.6488 0.969424 7.2272 0.46768C9.05647 -0.117687 10.8544 -0.128101 12.5582 0.310924C14.053 0.708137 15.4746 1.47119 16.7185 2.51649C17.9729 1.47119 19.3945 0.708084 20.8997 0.321323C22.5931 -0.138608 24.4015 -0.117687 26.2412 0.46768C27.7987 0.958971 29.2307 1.83705 30.4015 2.97642C31.5617 4.12625 32.4711 5.52694 32.9729 7.08444C33.5583 8.85099 33.5792 10.6071 33.1401 12.2482C32.6802 13.9416 31.7395 15.5514 30.391 16.8893L30.3283 16.9311L17.6279 29.6315C17.1366 30.1228 16.3004 30.1228 15.8196 29.6315V29.6524ZM18.2446 4.59662L18.2237 4.61755L14.1262 8.70464C13.8439 9.01823 13.3526 9.01823 13.0391 8.70464C12.7464 8.4015 12.7255 7.92068 13.0391 7.60709L15.6419 5.01477L15.6105 4.96245C14.5025 3.91715 13.2272 3.16454 11.8892 2.80914C10.6453 2.4851 9.32824 2.48514 7.96935 2.92417C6.80907 3.31093 5.73241 3.95897 4.83346 4.83702C3.95541 5.69417 3.26552 6.73946 2.89966 7.89974C2.48155 9.175 2.46063 10.4294 2.76377 11.6001C3.09827 12.844 3.82998 14.0461 4.85437 15.0496L16.6976 26.9137L28.5095 15.1437L28.5513 15.0496C29.5861 14.0461 30.3074 12.844 30.6419 11.6001C30.9659 10.4294 30.9555 9.175 30.5164 7.89974C30.1401 6.729 29.4607 5.69417 28.5826 4.83702C27.6837 3.97988 26.607 3.30042 25.4467 2.93457C24.1192 2.49554 22.7812 2.49556 21.5373 2.8196C20.3562 3.13319 19.2377 3.74994 18.2342 4.60709L18.2446 4.59662Z" fill="#EEF8FF"/>
</svg>
