<svg width="31" height="30" viewBox="0 0 31 30" fill="none" xmlns="http://www.w3.org/2000/svg">
<path d="M24.4845 7.7439C24.6346 8.09087 24.4658 8.49408 24.1282 8.65349C23.7812 8.80353 23.3686 8.65355 23.2186 8.2972C23.0404 7.90335 22.8247 7.52823 22.5809 7.1625C22.3465 6.80616 22.0558 6.48731 21.7369 6.1591C21.0618 5.47454 20.2647 4.96814 19.4301 4.61179L19.4113 4.59307C18.5392 4.23673 17.6296 4.07732 16.6918 4.07732C16.3449 4.07732 16.0073 4.09603 15.6791 4.14291C14.2349 4.88374 12.7908 5.83088 11.3654 6.97494C11.7499 6.92805 12.1062 6.89058 12.4907 6.89058C13.5785 6.89058 14.685 7.10625 15.7072 7.52824L15.7353 7.54695C16.7481 7.95957 17.6858 8.57851 18.5017 9.39435C19.1956 10.0789 19.7583 10.8666 20.1615 11.7012C20.5741 12.5733 20.8273 13.5017 20.9492 14.4395C20.9773 14.8239 20.7148 15.1615 20.3303 15.2084C19.9552 15.2459 19.6176 14.974 19.5801 14.5989C19.4863 13.8111 19.2613 13.0422 18.9143 12.3107C18.5861 11.6168 18.1172 10.951 17.5264 10.379C16.8512 9.68505 16.0635 9.16931 15.2289 8.82234L15.1914 8.80357C14.3381 8.44722 13.4191 8.27843 12.5001 8.27843C11.5811 8.27843 10.6246 8.45662 9.76185 8.82234C9.44301 8.95362 9.14293 9.09428 8.83347 9.28183C8.22393 9.90074 7.65191 10.5384 7.12677 11.1948C7.50187 11.1292 7.88635 11.0917 8.27083 11.0917C9.37738 11.0917 10.4933 11.3167 11.5342 11.7668C12.5282 12.1794 13.4847 12.789 14.2818 13.5955C15.0226 14.3363 15.5947 15.1521 16.0073 16.0524C16.4293 16.962 16.6731 17.9372 16.7481 18.9313C16.7856 19.3157 16.4949 19.6439 16.1198 19.6721C15.7353 19.7002 15.3977 19.4283 15.379 19.0344C15.3133 18.2186 15.0976 17.384 14.7413 16.615C14.4037 15.893 13.9255 15.1896 13.3253 14.5801C12.6314 13.9049 11.8437 13.3798 11.0091 13.0422C10.1463 12.6765 9.20858 12.4983 8.27083 12.4983C7.68005 12.4983 7.07988 12.5827 6.50785 12.7234C6.27342 12.7796 6.03897 12.8452 5.81391 12.939C5.27002 13.7455 4.77301 14.5426 4.33226 15.3397C5.34504 15.3772 6.33906 15.5741 7.28619 15.968H7.32369C8.32709 16.39 9.26484 16.9995 10.0713 17.8341C10.6527 18.4061 11.1403 19.0625 11.5154 19.7471C11.9093 20.4504 12.1906 21.2194 12.3594 21.9883C12.4532 22.3634 12.2 22.7292 11.8343 22.8042C11.4685 22.8886 11.1028 22.6448 11.0184 22.279C10.8778 21.632 10.6246 21.0037 10.3057 20.4129C9.98691 19.8409 9.58367 19.2782 9.09604 18.7906C8.42086 18.1154 7.62378 17.5903 6.78918 17.2527L6.77042 17.2339C5.89831 16.887 4.9887 16.6994 4.05095 16.6994C3.91029 16.6994 3.77899 16.6994 3.65708 16.6994C3.30074 17.5059 3.01942 18.2842 2.78498 19.0532C1.941 22.0634 2.18482 24.6984 3.72273 26.2363V26.2551C5.27002 27.793 7.91447 28.0556 10.9247 27.2022C14.1411 26.2832 17.7327 24.1264 20.9492 20.9287V20.9099L20.9961 20.8724C24.1657 17.6841 26.3038 14.1206 27.2134 10.8947C28.0574 7.89393 27.8229 5.25887 26.2663 3.7022C24.719 2.15491 22.0933 1.92047 19.0737 2.76445L18.6142 2.90513C19.0456 3.00829 19.4863 3.13014 19.8989 3.31769L19.9458 3.33646C20.9492 3.74907 21.8963 4.35863 22.6934 5.17448C23.0685 5.54958 23.3874 5.95278 23.6968 6.37477C23.9782 6.80613 24.2501 7.26565 24.4658 7.7439H24.4845ZM27.9167 2.07991C30.1017 4.27425 30.533 7.72514 29.4452 11.5418C28.4418 15.1146 26.0975 19.0438 22.6465 22.4947L22.5903 22.5604H22.5809V22.5791C19.1018 26.0488 15.1445 28.4026 11.553 29.4435C7.74569 30.5031 4.28538 30.0811 2.1098 27.9055C-0.0845381 25.7112 -0.50652 22.2603 0.562516 18.4624C1.57529 14.8896 3.91966 10.951 7.36121 7.49069L7.41747 7.42504C10.9059 3.93661 14.8632 1.58286 18.4454 0.570086C22.2527 -0.508327 25.7036 -0.086344 27.8886 2.08924L27.9167 2.07991Z" fill="#000000"/>
</svg>
