<svg width="31" height="30" viewBox="0 0 31 30" fill="none" xmlns="http://www.w3.org/2000/svg">
<path d="M5.7023 29.9713C5.03116 29.9713 4.48467 29.4247 4.48467 28.7536C4.48467 28.0825 5.03116 27.5455 5.7023 27.5455H8.53068V26.2033C8.53068 25.8677 8.64574 25.5801 8.85667 25.3596L8.9046 25.2924C9.1443 25.0623 9.4607 24.9185 9.81544 24.9185H14.1299V4.98563C13.7177 5.08151 13.3341 5.19658 12.9506 5.35957C12.5959 5.51297 12.2507 5.70469 11.9152 5.92521C11.5988 6.15532 11.2728 6.41418 11.0043 6.70182C10.314 7.38255 9.48946 7.92904 8.56903 8.31255C8.10882 8.5043 7.63903 8.66734 7.12129 8.7728C6.92954 8.81115 6.73778 8.8303 6.54602 8.86865L9.67163 18.4276C9.83462 18.4851 9.99761 18.5811 10.1414 18.7249C10.6112 19.1947 10.6112 19.9712 10.1414 20.4315C9.55657 21.0259 8.82791 21.5245 8.03212 21.86C7.25552 22.1572 6.42138 22.349 5.55849 22.349C4.69559 22.349 3.8327 22.1668 3.06568 21.86L2.99856 21.8217C2.22196 21.4861 1.53164 21.0259 0.956379 20.4315C0.48658 19.9808 0.48658 19.1947 0.956379 18.7249C1.09061 18.5811 1.2536 18.4851 1.42618 18.4276L4.57095 8.84946C4.40796 8.8207 4.25456 8.80156 4.10115 8.7728C3.58342 8.65775 3.10403 8.49472 2.64381 8.31255C2.1836 8.13997 1.74257 7.89073 1.34947 7.63186C0.9372 7.3634 0.553692 7.04698 0.208533 6.71141C-0.0695111 6.40461 -0.0695111 5.93479 0.208533 5.67592C0.496165 5.3787 0.965962 5.3787 1.24401 5.67592C1.52205 5.93479 1.82886 6.20328 2.15485 6.42379C2.49042 6.64431 2.83557 6.84563 3.19991 6.99903C3.57383 7.14285 3.95734 7.26749 4.36961 7.35378C4.76271 7.43048 5.17498 7.47842 5.60643 7.47842C6.03788 7.47842 6.44056 7.44007 6.83366 7.35378C7.22675 7.26749 7.62944 7.14285 8.00336 6.99903C8.73203 6.70181 9.39358 6.23201 9.95926 5.67592L9.97843 5.65679C10.3236 5.31163 10.6879 5.0048 11.1002 4.73634C11.4837 4.46789 11.9247 4.24735 12.3754 4.05559C12.8356 3.85425 13.3246 3.69129 13.8231 3.605L14.1107 3.53788V1.22726C14.1107 0.556117 14.6764 0 15.3476 0C16.0187 0 16.5556 0.556117 16.5556 1.22726V3.53788L16.8528 3.605C17.3514 3.69129 17.85 3.84466 18.3102 4.05559C18.78 4.24735 19.2114 4.46789 19.6045 4.73634C19.9976 5.0048 20.3907 5.32118 20.7263 5.67592C21.0139 5.93479 21.3111 6.20328 21.6371 6.42379C21.9823 6.64431 22.3274 6.84563 22.6822 6.99903C23.0465 7.14285 23.4396 7.26749 23.8423 7.35378C24.245 7.43048 24.6381 7.47842 25.0695 7.47842C25.501 7.47842 25.9133 7.44007 26.2968 7.35378C26.709 7.26749 27.0925 7.14285 27.476 6.99903C28.2047 6.70181 28.8663 6.23201 29.4319 5.67592C29.7196 5.3787 30.1894 5.3787 30.4674 5.67592C30.7455 5.93479 30.7455 6.41419 30.4674 6.71141C29.7771 7.39214 28.9622 7.93864 28.0417 8.32215C27.5815 8.5139 27.1021 8.67687 26.5844 8.78234C26.4406 8.82069 26.2776 8.83029 26.105 8.85906L29.2594 18.4372C29.4224 18.4947 29.5758 18.5906 29.7196 18.7344C30.199 19.2042 30.199 19.9808 29.7196 20.4411C29.1347 21.0355 28.4156 21.534 27.6103 21.8696C26.8528 22.1668 26.0091 22.3586 25.1271 22.3586C24.245 22.3586 23.43 22.1764 22.6534 21.8696L22.5959 21.8313C21.8097 21.4957 21.129 21.0355 20.5441 20.4411C20.0647 19.9904 20.0647 19.2042 20.5441 18.7344C20.6688 18.5906 20.8413 18.4947 21.0043 18.4372L24.1491 8.87825C23.9382 8.8399 23.7464 8.82069 23.5643 8.78234C23.0561 8.66729 22.5671 8.50431 22.1069 8.32215C21.6371 8.14957 21.1961 7.90027 20.8126 7.6414C20.4195 7.37294 20.0168 7.05658 19.6908 6.72101C19.3936 6.43338 19.0964 6.17451 18.7608 5.94441C18.4348 5.73348 18.0897 5.53211 17.7253 5.3787C17.361 5.21571 16.9583 5.10065 16.546 5.00477V24.9377H20.8701C21.2248 24.9377 21.5604 25.0815 21.7905 25.3116C22.0302 25.5417 22.174 25.8773 22.174 26.232V27.5743H25.012C25.6831 27.5743 26.2201 28.1208 26.2201 28.7824C26.2201 29.444 25.6831 30 25.012 30H5.67354L5.7023 29.9713ZM27.8979 18.8399L25.1654 10.5177L22.4425 18.8399C22.7876 19.1467 23.1712 19.396 23.5643 19.5877H23.6218C24.1012 19.7891 24.6189 19.9041 25.1654 19.9041C25.7119 19.9041 26.2488 19.7987 26.709 19.5973H26.7282C27.1405 19.4152 27.5528 19.1754 27.8883 18.8495L27.8979 18.8399ZM8.29099 18.8399L5.57767 10.5177L2.84516 18.8399C3.17114 19.1467 3.55465 19.396 3.96693 19.5877H4.01486C4.48466 19.7891 5.01199 19.9041 5.56808 19.9041C6.12417 19.9041 6.6419 19.7987 7.10211 19.5973C7.52397 19.4152 7.93625 19.1754 8.28141 18.8495L8.29099 18.8399ZM9.98802 27.5455H20.755V26.3855H9.98802V27.5455Z" fill="#EEF8FF"/>
</svg>
