<svg width="28" height="30" viewBox="0 0 28 30" fill="none" xmlns="http://www.w3.org/2000/svg">
<path d="M24.9174 14.9906C25.105 14.7749 25.2551 14.5592 25.4145 14.3529C29.3063 8.8856 26.7836 4.50612 20.0878 5.12506C19.844 5.16257 19.5626 5.19068 19.2813 5.21881C19.1875 4.97499 19.0656 4.71241 18.9625 4.48734C16.2241 -1.49578 11.0475 -1.49578 8.32789 4.48734C8.19659 4.72179 8.10283 4.97499 7.99029 5.21881C7.72771 5.19068 7.45576 5.16257 7.17442 5.12506C0.469201 4.49674 -2.07225 8.84809 1.86648 14.3529C2.01653 14.5686 2.18535 14.7843 2.35415 14.9906C2.18535 15.2157 2.01653 15.4314 1.86648 15.6377C-1.95971 21.0113 0.628626 25.4845 7.17442 24.8562C7.44638 24.8374 7.71833 24.8093 7.99029 24.7812C8.10283 25.025 8.19659 25.2688 8.32789 25.5127C11.0381 31.4958 16.2241 31.4958 18.9625 25.5127C19.0656 25.2688 19.1875 25.025 19.2813 24.7812C19.5626 24.8187 19.8346 24.8374 20.0878 24.8562C26.6336 25.4845 29.2313 21.0019 25.4145 15.6471C25.2551 15.4314 25.105 15.2157 24.9174 14.9906ZM20.2285 6.55988C25.6958 6.03472 27.412 9.05441 24.2423 13.5089L23.9703 13.884C23.0512 12.8712 21.954 11.8678 20.7068 10.9206C20.5004 9.37325 20.1816 7.90091 19.7877 6.60676L20.2285 6.55988ZM23.0325 14.9906C22.4041 15.6846 21.7008 16.3973 20.8943 17.0725C20.9787 15.6846 20.9787 14.3154 20.8943 12.9369C21.7008 13.6121 22.4041 14.3248 23.0325 15V14.9906ZM19.0562 9.7296C17.9028 8.99812 16.7024 8.28541 15.4739 7.66647C16.4585 7.32886 17.4151 7.04752 18.3435 6.84121C18.6248 7.76024 18.8687 8.69804 19.0562 9.72024V9.7296ZM9.62204 5.07815C11.854 0.211008 15.4364 0.211008 17.6589 5.07815C17.7152 5.20944 17.7902 5.34073 17.8277 5.50953C16.5054 5.79087 15.08 6.24103 13.6452 6.85059C12.1916 6.24103 10.7943 5.79088 9.44386 5.49078L9.61266 5.07815H9.62204ZM8.9468 6.85059C9.85646 7.04753 10.8318 7.33825 11.8165 7.67586C10.5692 8.2948 9.36884 8.99813 8.21535 9.73898C8.40291 8.71679 8.64676 7.76961 8.93747 6.85995L8.9468 6.85059ZM7.06189 23.4308C1.7446 23.9465 -0.0466168 20.8331 3.03872 16.4817C3.12312 16.3692 3.21694 16.2379 3.31072 16.116C4.23913 17.1288 5.32694 18.1228 6.56483 19.0794C6.78052 20.6267 7.09937 22.0804 7.50262 23.3839L7.06189 23.4308ZM4.23912 14.9906C4.86744 14.3154 5.58015 13.6027 6.38665 12.9275C6.29287 14.3154 6.29287 15.6846 6.38665 17.0538C5.58015 16.3973 4.87682 15.6752 4.23912 14.9812V14.9906ZM6.56483 10.9206C5.32694 11.8678 4.23913 12.8806 3.31072 13.884L3.03872 13.5089C-0.131018 9.04503 1.60393 6.03472 7.06189 6.55988L7.50262 6.60676C7.08999 7.90091 6.77114 9.37325 6.56483 10.9206ZM8.21535 20.2516C9.36884 21.0112 10.5692 21.7052 11.8165 22.3242C10.8224 22.6618 9.84708 22.9525 8.9468 23.1494C8.64671 22.2585 8.4123 21.2832 8.22474 20.261L8.21535 20.2516ZM17.6495 24.9218C15.427 29.789 11.8446 29.789 9.61266 24.9218L9.44386 24.4998C10.7849 24.2091 12.1916 23.759 13.6452 23.1588C15.08 23.759 16.4961 24.2091 17.8277 24.4998C17.7808 24.6405 17.7152 24.7999 17.6589 24.9218H17.6495ZM18.3247 23.14C17.4057 22.9525 16.4492 22.6618 15.4645 22.3148C16.693 21.6958 17.8934 21.0113 19.0468 20.2423C18.8593 21.2645 18.6154 22.2398 18.3247 23.1307V23.14ZM19.3282 18.2916C17.5745 19.5858 15.6333 20.6924 13.6452 21.5833C11.6289 20.6924 9.71583 19.5858 7.93403 18.2916C7.70896 16.1066 7.69958 13.884 7.93403 11.7084C9.71583 10.4142 11.6289 9.29824 13.6452 8.40733C15.6333 9.29824 17.5745 10.4142 19.3282 11.699C19.572 13.884 19.572 16.1066 19.3282 18.2916ZM20.2285 23.4308L19.7877 23.3839C20.1816 22.071 20.5004 20.6174 20.7068 19.0794C21.954 18.1228 23.0606 17.1194 23.9703 16.116L24.2423 16.4911C27.337 20.8331 25.5458 23.9465 20.2285 23.4308ZM13.6452 10.5736C11.2163 10.5736 9.20941 12.5805 9.20941 14.9906C9.20941 17.4008 11.2163 19.4264 13.6452 19.4264C16.074 19.4264 18.0622 17.4289 18.0622 14.9906C18.0622 12.5524 16.074 10.5736 13.6452 10.5736ZM13.6452 17.0163C12.5292 17.0163 11.6289 16.0972 11.6289 14.9906C11.6289 13.884 12.5292 12.9931 13.6452 12.9931C14.7611 12.9931 15.6614 13.9122 15.6614 14.9906C15.6614 16.0691 14.7424 17.0163 13.6452 17.0163Z" fill="#EEF8FF"/>
</svg>
