<svg width="32" height="30" viewBox="0 0 32 30" fill="none" xmlns="http://www.w3.org/2000/svg">
<path d="M22.1393 8.94556L22.1587 8.96498C23.4017 10.1983 25.3343 10.5382 26.7522 9.22717C27.4708 8.5668 27.937 7.61509 28.1118 6.54683L28.1409 6.39145V6.34287C28.2381 5.71163 28.2672 5.04154 28.2963 4.37144C28.3352 3.78876 28.3643 3.2255 28.4226 2.65253C27.8593 2.73022 27.2766 2.74964 26.7036 2.76906C24.9653 2.86617 23.1687 2.91474 21.8479 4.3229C20.5369 5.75048 20.8476 7.65394 22.1295 8.94556H22.149H22.1393ZM15.0887 15.2871C14.7877 15.7144 14.4575 16.0932 14.1176 16.4137C12.0588 18.3365 8.98022 18.8707 6.38726 17.511C3.44469 15.9863 2.49297 13.3643 1.58009 10.5091C1.17221 9.22718 0.744907 7.94528 0.171931 6.90615C-0.177682 6.33318 0.0262587 5.60482 0.599235 5.27463C0.783753 5.17752 0.987693 5.11925 1.19163 5.11925C2.36672 5.11925 3.69719 4.8376 5.02766 4.55597C7.9411 3.94414 10.67 3.44886 13.4863 5.22606C15.9433 6.77989 17.0407 9.70304 16.4095 12.4514C16.2832 12.9855 16.0987 13.5197 15.8462 14.0344C16.157 14.2771 16.4386 14.5782 16.6911 14.8695C17.0893 13.5391 17.9633 11.7036 19.8862 9.99439C18.2255 7.86758 18.1478 4.80847 20.0901 2.71079C21.945 0.729656 24.1592 0.516019 26.5871 0.38977C27.6262 0.341213 28.6751 0.282918 29.5588 0.0595544V0.0401422C29.753 -0.0084151 29.9667 -0.0181266 30.1803 0.0401422C30.8116 0.205237 31.2 0.875328 31.0252 1.49686C30.7922 2.39032 30.7242 3.42945 30.6756 4.47829C30.6368 5.20665 30.5979 5.92528 30.5008 6.65364V6.72163L30.462 6.88671V6.90615C30.1998 8.49883 29.4617 9.95555 28.3449 10.9753C26.5677 12.6165 23.9941 12.8496 21.9353 11.7522C21.5566 11.5482 21.1972 11.3151 20.8671 11.0141C18.0799 13.4419 17.8079 16.1029 17.7788 16.7244C18.1478 17.6276 18.3032 18.4919 18.3809 19.2203C18.614 19.1523 18.8276 19.1426 19.0704 19.1426C19.9833 19.1426 20.8573 19.4728 21.5177 20.036C21.9062 20.3371 22.2364 20.745 22.4889 21.1917C23.4503 21.2403 24.334 21.6482 24.9847 22.2988C25.5577 22.8718 25.9364 23.6099 26.0335 24.4548C26.2763 24.6781 26.5094 24.9112 26.6842 25.1831C27.0144 25.6784 27.1989 26.2611 27.1989 26.8923C27.1989 27.7469 26.8493 28.5238 26.2958 29.0774C25.7422 29.6504 24.9653 30 24.101 30H12.2239C11.379 30 10.5923 29.6407 10.0388 29.0774C8.76657 27.8149 8.85398 25.7464 10.2039 24.5616C10.4369 24.3576 10.7089 24.1828 10.9808 24.0469V23.8915C10.9808 22.2988 12.1462 20.9004 13.6806 20.5605C13.8845 20.1914 14.1467 19.9195 14.4478 19.667C14.9819 19.23 15.6617 18.9775 16.3901 18.9775C16.5649 18.9775 16.7591 18.9969 16.9436 19.0455C16.8659 18.4822 16.7203 17.8704 16.458 17.2391C16.4386 17.2003 16.4289 17.142 16.4095 17.0837C16.1084 16.4428 15.7006 15.8213 15.0887 15.2968V15.2871ZM12.4764 14.6753C12.8454 14.3354 13.195 13.9081 13.4669 13.4128C13.7583 12.9272 13.9622 12.432 14.069 11.9367C14.4769 10.1498 13.8068 8.25605 12.2044 7.24606C10.0388 5.86703 7.776 6.42056 5.50352 6.88671C4.66834 7.07123 3.85257 7.24604 2.99797 7.35287C3.30873 8.1395 3.57094 8.95525 3.84286 9.77101C4.5518 11.9658 5.2316 14.2092 7.49437 15.394C9.14532 16.2777 11.1459 15.9281 12.4764 14.6753ZM13.4184 24.1731C13.4378 24.2508 13.4669 24.3479 13.5155 24.4159C13.632 24.6393 13.6903 24.8821 13.6611 25.154C13.5737 25.8047 12.9813 26.2611 12.3404 26.1834H12.2433C11.3013 26.1834 11.3013 27.611 12.2433 27.611H24.1204C24.3146 27.611 24.4991 27.5139 24.6254 27.407C24.7613 27.2614 24.8293 27.0865 24.8293 26.8923C24.8293 26.7466 24.8002 26.601 24.7225 26.4941C24.6448 26.397 24.5574 26.3096 24.4506 26.2514C23.965 26.0766 23.6348 25.5813 23.6737 25.0374L23.6931 24.9403V24.8723C23.6931 24.5324 23.5474 24.2023 23.3143 23.9595C23.0813 23.7361 22.7705 23.5904 22.4015 23.5904C22.3432 23.5904 22.2655 23.5904 22.2169 23.6098C22.1587 23.6098 22.1101 23.6293 22.0518 23.639L21.9547 23.6584C21.3138 23.8041 20.6825 23.3768 20.566 22.7358C20.498 22.3959 20.3135 22.1046 20.0319 21.8812C19.7794 21.6773 19.4589 21.551 19.1093 21.551C18.9442 21.551 18.8276 21.5705 18.7014 21.5996C18.5751 21.6287 18.4683 21.6967 18.3324 21.755C17.8953 22.0172 17.3029 21.9589 16.9048 21.5705C16.5163 21.2014 15.8268 21.3762 15.7006 21.9298C15.5937 22.5028 15.0887 22.9106 14.5158 22.8912H14.4381C13.8554 22.8912 13.3989 23.3476 13.3989 23.9109C13.3989 24.0177 13.4184 24.1148 13.4378 24.1925L13.4184 24.1731Z" fill="#EEF8FF"/>
</svg>
