<svg width="65" height="65" viewBox="0 0 65 65" fill="none"
    xmlns="http://www.w3.org/2000/svg">
    <path d="M52.5469 8.59375C50.7861 8.59516 49.0979 9.29525 47.8528 10.5403C46.6077 11.7854 45.9077 13.4736 45.9063 15.2344C45.9063 16.1827 46.1134 17.0831 46.4747 17.9039L41.2817 23.745C39.5176 22.5273 37.4248 21.8751 35.2813 21.875C33.3156 21.875 31.4988 22.4488 29.9183 23.3784L23.878 17.3408L23.8169 17.4019C24.3375 16.3447 24.6563 15.168 24.6563 13.9063C24.6563 12.3302 24.1889 10.7895 23.3133 9.47905C22.4377 8.1686 21.1931 7.14722 19.737 6.54409C18.2809 5.94095 16.6787 5.78314 15.1329 6.09062C13.5871 6.3981 12.1672 7.15705 11.0527 8.2715C9.9383 9.38595 9.17935 10.8058 8.87187 12.3516C8.56439 13.8974 8.7222 15.4997 9.32534 16.9558C9.92847 18.4119 10.9498 19.6564 12.2603 20.532C13.5708 21.4076 15.1114 21.875 16.6875 21.875C17.9492 21.875 19.1233 21.5563 20.1831 21.0356L20.122 21.0967L26.1623 27.1344C25.1865 28.7548 24.6662 30.6085 24.6563 32.5C24.6563 35.1483 25.6656 37.5442 27.2727 39.4089L20.4275 46.2514C19.6603 45.9443 18.842 45.7848 18.0156 45.7813C14.3553 45.7813 11.375 48.7589 11.375 52.4219C11.375 56.0848 14.3553 59.0625 18.0156 59.0625C21.6759 59.0625 24.6563 56.0848 24.6563 52.4219C24.6563 51.5692 24.4809 50.7591 24.1861 50.0073L31.7245 42.4689C32.8428 42.8673 34.0275 43.125 35.2813 43.125C41.1409 43.125 45.9063 38.3597 45.9063 32.5C45.9063 30.8106 45.4733 29.2355 44.7694 27.8144L50.3927 21.4845C51.0727 21.7183 51.7898 21.875 52.5469 21.875C56.2098 21.875 59.1875 18.8973 59.1875 15.2344C59.1875 11.5714 56.2098 8.59375 52.5469 8.59375ZM35.2813 37.8125C32.3514 37.8125 29.9688 35.4298 29.9688 32.5C29.9688 29.5702 32.3514 27.1875 35.2813 27.1875C38.2111 27.1875 40.5938 29.5702 40.5938 32.5C40.5938 35.4298 38.2111 37.8125 35.2813 37.8125Z" stroke="#000000" stroke-width="1.5"/>
</svg>
