<svg width="35" height="30" viewBox="0 0 35 30" fill="none" xmlns="http://www.w3.org/2000/svg">
<path d="M17.9028 2.35523e-05C17.7223 -0.000154936 17.544 0.0388471 17.38 0.114336C17.2161 0.189824 17.0706 0.3 16.9534 0.43725L16.8285 0.527194C13.0683 -0.577115 8.80348 0.27735 5.82784 3.09309C3.18699 5.58903 2.17762 9.04186 2.79724 12.2723L2.75976 12.3073L1.08331 13.8938C0.741741 14.209 0.469147 14.5914 0.282701 15.0171C0.0962553 15.4428 0 15.9025 0 16.3673C0 16.832 0.0962553 17.2917 0.282701 17.7174C0.469147 18.1431 0.741741 18.5256 1.08331 18.8407C1.93777 19.6527 3.11204 19.9825 4.22384 19.8301C4.38374 20.4123 4.70604 20.9644 5.18824 21.4216C5.84033 22.0387 6.67731 22.376 7.53177 22.436C7.59423 23.243 7.95151 24.035 8.6061 24.6521C9.2557 25.2692 10.0927 25.6065 10.9471 25.6665C11.0096 26.4735 11.3669 27.2655 12.0215 27.8826C12.6731 28.4848 13.5123 28.8441 14.3978 28.9001C15.2834 28.9561 16.1611 28.7053 16.8834 28.1899L17.7079 28.9694C19.157 30.3435 21.513 30.3435 22.9646 28.9694C23.6142 28.3548 23.974 27.5678 24.0389 26.7633C24.8884 26.7008 25.7179 26.3635 26.3675 25.7489C27.0171 25.1343 27.3769 24.3473 27.4418 23.5428C28.2788 23.4728 29.0958 23.1355 29.7404 22.5309C30.2426 22.0537 30.5724 21.4716 30.7223 20.8595C31.8216 20.9919 32.9684 20.6596 33.8103 19.8651C34.1519 19.55 34.4245 19.1675 34.6109 18.7418C34.7974 18.3161 34.8936 17.8564 34.8936 17.3916C34.8936 16.9269 34.7974 16.4672 34.6109 16.0415C34.4245 15.6158 34.1519 15.2333 33.8103 14.9182L32.3263 13.5141L32.6086 12.4647C33.2633 10.0336 32.932 7.44237 31.6867 5.25423C29.8503 2.00127 26.295 0.00751832 22.4674 0.00751832H19.9215C19.8067 0.00222593 19.6917 -0.000272704 19.5767 2.35523e-05H17.9028ZM28.826 13.634L30.0402 14.8332C30.1159 14.907 30.2007 14.9708 30.2925 15.0231L31.994 16.6321C32.0986 16.7285 32.1821 16.8456 32.2392 16.9759C32.2963 17.1062 32.3258 17.2469 32.3258 17.3891C32.3258 17.5314 32.2963 17.6721 32.2392 17.8024C32.1821 17.9327 32.0986 18.0498 31.994 18.1462C31.7762 18.347 31.4907 18.4586 31.1945 18.4586C30.8982 18.4586 30.6128 18.347 30.395 18.1462L27.5468 15.4554C27.2998 15.2273 26.976 15.1006 26.6398 15.1006C26.3037 15.1006 25.9798 15.2273 25.7329 15.4554L25.7029 15.4803C25.5849 15.5902 25.4907 15.7232 25.4264 15.8711C25.362 16.019 25.3288 16.1785 25.3288 16.3398C25.3288 16.5011 25.362 16.6606 25.4264 16.8085C25.4907 16.9563 25.5849 17.0894 25.7029 17.1993L27.924 19.2979C28.0287 19.3946 28.1123 19.5118 28.1694 19.6423C28.2266 19.7728 28.2561 19.9138 28.2561 20.0562C28.2561 20.1987 28.2266 20.3396 28.1694 20.4701C28.1123 20.6006 28.0287 20.7179 27.924 20.8145C27.7257 20.998 27.4705 21.108 27.2009 21.1262C26.9313 21.1444 26.6636 21.0697 26.4424 20.9144C26.1912 20.7365 25.8864 20.6505 25.5792 20.671C25.2721 20.6915 24.9814 20.8171 24.756 21.0269C24.5384 21.2295 24.4063 21.5076 24.3868 21.8043C24.3673 22.101 24.4618 22.394 24.6511 22.6234C24.8173 22.8267 24.8995 23.0858 24.881 23.3478C24.8624 23.6097 24.7444 23.8547 24.5511 24.0325C24.3501 24.2185 24.0907 24.329 23.8173 24.3449C23.5438 24.3609 23.2734 24.2813 23.0521 24.1199C22.802 23.9371 22.4962 23.8466 22.1869 23.8639C21.8775 23.8812 21.5838 24.0052 21.3556 24.2149C21.1351 24.4171 21.0008 24.6964 20.9803 24.9949C20.9598 25.2934 21.0548 25.5884 21.2457 25.8189C21.5955 26.2436 21.563 26.8607 21.1483 27.253C20.9269 27.4566 20.6371 27.5697 20.3363 27.5697C20.0355 27.5697 19.7456 27.4566 19.5243 27.253L18.7198 26.4934L18.9296 26.2961C19.2712 25.9809 19.5438 25.5985 19.7302 25.1728C19.9167 24.7471 20.013 24.2874 20.013 23.8226C20.013 23.3579 19.9167 22.8982 19.7302 22.4725C19.5438 22.0468 19.2712 21.6643 18.9296 21.3492C18.2897 20.7496 17.4613 20.391 16.5861 20.3348C16.517 19.4879 16.1338 18.6975 15.5118 18.1187C14.8728 17.5187 14.0453 17.1593 13.1707 17.1018C13.1016 16.255 12.7185 15.4645 12.0964 14.8857C11.6796 14.4975 11.1813 14.2072 10.638 14.0361C10.0947 13.8649 9.51999 13.8172 8.95588 13.8963C8.7863 13.2882 8.45266 12.7385 7.99149 12.3073C7.62326 11.9628 7.19026 11.6948 6.71761 11.5189C6.24497 11.3431 5.7421 11.2629 5.23821 11.283C5.10388 10.0911 5.2514 8.88435 5.66888 7.75995C6.08635 6.63554 6.76211 5.62492 7.64171 4.80951C8.50217 4.00599 9.51787 3.38692 10.6264 2.99035C11.7349 2.59378 12.9128 2.42809 14.0877 2.50346L11.3519 4.47722C10.932 4.77528 10.5779 5.15644 10.3116 5.59705C10.0452 6.03765 9.87215 6.5283 9.80328 7.03856C9.7344 7.54881 9.77112 8.06777 9.91116 8.56324C10.0512 9.05871 10.2916 9.52011 10.6173 9.91882C11.2745 10.7238 12.2129 11.249 13.2427 11.3882C14.2725 11.5273 15.3166 11.27 16.1639 10.6683L19.5293 8.24486H23.127L28.826 13.634ZM12.8135 6.50095L18.3675 2.49846H19.5792C19.6834 2.49741 19.7876 2.49991 19.8915 2.50595H22.4649C25.4431 2.50595 28.1414 4.05499 29.5105 6.48347C30.3925 8.03999 30.6548 9.83137 30.2651 11.5453L24.736 6.1037C24.5025 5.87475 24.1886 5.74647 23.8616 5.74643H19.122C18.8602 5.74634 18.605 5.82849 18.3925 5.98128L14.7048 8.64212C14.3763 8.87037 13.9742 8.96722 13.5778 8.91357C13.1815 8.85992 12.8196 8.65966 12.5636 8.3523C12.4504 8.21789 12.3666 8.06128 12.3176 7.89254C12.2685 7.72379 12.2554 7.54666 12.2789 7.37252C12.3024 7.19838 12.3622 7.03109 12.4542 6.88142C12.5463 6.73174 12.6687 6.6005 12.8135 6.50095ZM15.5168 23.0606C15.7352 22.8604 16.021 22.7498 16.3173 22.7507C16.6135 22.7516 16.8986 22.864 17.1158 23.0656C17.2204 23.162 17.3039 23.279 17.361 23.4093C17.4182 23.5396 17.4476 23.6803 17.4476 23.8226C17.4476 23.9649 17.4182 24.1056 17.361 24.2359C17.3039 24.3662 17.2204 24.4832 17.1158 24.5796L15.4368 26.1661C15.219 26.367 14.9336 26.4785 14.6373 26.4785C14.341 26.4785 14.0556 26.367 13.8378 26.1661C13.7332 26.0697 13.6497 25.9527 13.5926 25.8224C13.5354 25.6921 13.506 25.5514 13.506 25.4091C13.506 25.2669 13.5354 25.1261 13.5926 24.9958C13.6497 24.8655 13.7332 24.7485 13.8378 24.6521L15.5168 23.0631V23.0606ZM13.7029 21.3442L12.0215 22.9357C11.8035 23.1373 11.5176 23.2492 11.2207 23.2492C10.9238 23.2492 10.6379 23.1373 10.42 22.9357C10.3177 22.8413 10.2356 22.7271 10.1787 22.6C10.1217 22.473 10.0912 22.3357 10.0889 22.1965C10.0865 22.0573 10.1124 21.9191 10.1651 21.7902C10.2177 21.6613 10.2959 21.5444 10.395 21.4466L10.42 21.4216L12.0964 19.8351L12.1214 19.8101C12.3409 19.619 12.6234 19.5158 12.9144 19.5204C13.2055 19.525 13.4845 19.6371 13.6979 19.8351C13.8021 19.9311 13.8853 20.0476 13.9423 20.1772C13.9994 20.3069 14.0291 20.4469 14.0296 20.5885C14.0301 20.7302 14.0013 20.8704 13.9451 21.0004C13.8889 21.1305 13.8064 21.2475 13.7029 21.3442ZM10.2801 18.1187L8.6061 19.7027L8.57862 19.7277C8.35925 19.9181 8.0773 20.0209 7.78683 20.0163C7.49637 20.0117 7.21782 19.9 7.0046 19.7027C6.89997 19.6063 6.81647 19.4893 6.75934 19.359C6.70222 19.2287 6.67273 19.0879 6.67273 18.9457C6.67273 18.8034 6.70222 18.6627 6.75934 18.5324C6.81647 18.4021 6.89997 18.285 7.0046 18.1886L8.67856 16.6046C8.89663 16.4023 9.1831 16.2899 9.48055 16.2899C9.77801 16.2899 10.0645 16.4023 10.2826 16.6046C10.3849 16.699 10.467 16.8132 10.5239 16.9403C10.5808 17.0673 10.6113 17.2046 10.6137 17.3438C10.616 17.483 10.5901 17.6212 10.5375 17.7501C10.4848 17.879 10.4066 17.9959 10.3075 18.0937L10.2826 18.1187H10.2801ZM6.17762 15.5378L4.50117 17.1243C4.28338 17.3252 3.99795 17.4367 3.70167 17.4367C3.40539 17.4367 3.11996 17.3252 2.90217 17.1243C2.79754 17.0279 2.71403 16.9109 2.65691 16.7806C2.59979 16.6503 2.5703 16.5095 2.5703 16.3673C2.5703 16.225 2.59979 16.0843 2.65691 15.954C2.71403 15.8237 2.79754 15.7067 2.90217 15.6103L4.57612 14.0237C4.79406 13.8222 5.08 13.7102 5.37687 13.7102C5.67374 13.7102 5.95969 13.8222 6.17762 14.0237C6.28225 14.1201 6.36576 14.2372 6.42288 14.3675C6.48 14.4978 6.50949 14.6385 6.50949 14.7808C6.50949 14.923 6.48 15.0638 6.42288 15.1941C6.36576 15.3244 6.28225 15.4414 6.17762 15.5378Z" fill="#000000"/>
</svg>
