<svg width="33" height="30" viewBox="0 0 33 30" fill="none" xmlns="http://www.w3.org/2000/svg">
<path d="M13.6099 15.005C13.5095 15.276 13.4593 15.5771 13.4593 15.8581C13.4593 16.4704 13.6802 17.0726 14.1519 17.5543L14.9247 18.3172L14.9649 18.3673C15.4266 18.8089 16.0187 19.0298 16.6009 19.0298C17.183 19.0298 17.8153 18.7989 18.287 18.3172L22.9341 13.7003L22.9642 13.64C23.4058 13.1884 23.6266 12.5862 23.6266 12.004C23.6266 11.4219 23.3857 10.7895 22.9341 10.3278L22.1412 9.545C21.6795 9.09335 21.0672 8.86251 20.455 8.86251C20.1639 8.86251 19.8729 8.90266 19.6019 8.99299L14.6035 4.00467C14.724 3.7136 14.7641 3.44265 14.7641 3.16162C14.7641 2.54937 14.5333 1.94717 14.0816 1.47544L13.2887 0.682495C12.8371 0.240876 12.2248 0 11.6126 0C11.0003 0 10.3981 0.240876 9.92639 0.682495L5.29943 5.32954L5.24924 5.35968C4.81766 5.83141 4.60689 6.42354 4.60689 7.01571C4.60689 7.60788 4.83774 8.23021 5.29943 8.6919L6.0823 9.48478L6.12245 9.51486C6.5741 9.95648 7.16627 10.1773 7.75844 10.1773C8.04951 10.1773 8.33054 10.1271 8.60153 10.0167L9.10337 10.5286L0.833054 18.829C0.270993 19.351 0 20.0836 0 20.8063C0 21.5289 0.28103 22.2817 0.833054 22.8036C1.37504 23.3657 2.09769 23.6366 2.82034 23.6366C3.54299 23.6366 4.28571 23.3757 4.8277 22.8036L13.1081 14.5433L13.6199 15.0351L13.6099 15.005ZM19.7926 10.5487C19.9732 10.358 20.2141 10.2676 20.455 10.2676C20.6959 10.2676 20.9568 10.358 21.1375 10.5487L21.9103 11.3215C22.091 11.5122 22.1813 11.7531 22.1813 11.994C22.1813 12.2248 22.101 12.4557 21.9404 12.6263L21.9103 12.6765L17.2834 17.2934C17.0927 17.4841 16.8417 17.5845 16.6009 17.5845C16.37 17.5845 16.1392 17.5042 15.9585 17.3536L15.9384 17.3034L15.1556 16.5406C14.9649 16.3499 14.8946 16.099 14.8946 15.8581C14.8946 15.6172 14.9649 15.3864 15.1355 15.2158L15.1656 15.1857L19.8026 10.5587L19.7926 10.5487ZM18.4577 9.86619L14.4731 13.8407L9.77584 9.13352L13.7504 5.14888L18.4577 9.86619ZM8.44095 8.46101C8.25025 8.65171 7.99933 8.74207 7.76848 8.74207C7.53763 8.74207 7.29675 8.66178 7.12613 8.49115L7.09602 8.46101L6.32318 7.66813C6.13248 7.48746 6.03211 7.24655 6.03211 7.00566C6.03211 6.76478 6.11241 6.52392 6.28303 6.34326L6.31314 6.32317L10.9401 1.67613C11.1208 1.48543 11.3617 1.41522 11.6126 1.41522C11.8535 1.41522 12.0943 1.49547 12.285 1.67613L13.0579 2.46907C13.2486 2.64974 13.3289 2.8906 13.3289 3.14152C13.3289 3.38241 13.2486 3.60323 13.088 3.78389L8.42087 8.45097L8.44095 8.46101ZM3.81398 21.7598C3.53295 22.0609 3.17163 22.1814 2.82034 22.1814C2.46905 22.1814 2.09769 22.0609 1.8267 21.7799V21.7598C1.5557 21.5088 1.42523 21.1375 1.42523 20.7762C1.42523 20.4349 1.56574 20.0635 1.8267 19.8026L10.1171 11.5222L12.0943 13.4995L3.81398 21.7598ZM30.9133 27.6112H28.1532V26.3065C28.1532 25.9552 28.0127 25.634 27.7819 25.4132C27.551 25.1924 27.2298 25.0418 26.8986 25.0418H26.3265V23.737C26.3265 23.3858 26.176 23.0746 25.9451 22.8438C25.7243 22.6229 25.4132 22.4724 25.0619 22.4724H14.0816C13.7203 22.4724 13.4092 22.6229 13.1783 22.8438C12.9374 23.0746 12.7969 23.3858 12.7969 23.737V25.0418H12.2349C11.8836 25.0418 11.5624 25.1823 11.3315 25.4132L11.2814 25.4834C11.0907 25.7043 10.9702 25.9853 10.9702 26.3165V27.6213H8.22014C7.55771 27.6213 7.01572 28.1532 7.01572 28.8056C7.01572 29.458 7.55771 30 8.22014 30H30.9133C31.5657 30 32.1177 29.468 32.1177 28.8056C32.1177 28.1432 31.5657 27.6213 30.9133 27.6213V27.6112ZM26.718 27.6112H12.4155V26.467H13.5196C13.921 26.467 14.2422 26.1359 14.2422 25.7545V23.8976H24.9013V25.7545C24.9013 26.1359 25.2325 26.467 25.6239 26.467H26.728V27.6112H26.718Z" fill="#000000"/>
</svg>
