<svg width="29" height="33" viewBox="0 0 29 33" fill="none" xmlns="http://www.w3.org/2000/svg">
<path d="M3.07999 0.370056L15.29 7.43005L27.6 14.5201C28.46 15.0201 28.73 16.1101 28.26 16.9501C28.07 17.2501 27.81 17.4901 27.5 17.6501L15.29 24.7201L2.98001 31.8201C2.15001 32.3101 1.04 32.0301 0.559998 31.1801C0.379998 30.8601 0.309987 30.5201 0.329987 30.2001V16.0701H0.299988V1.85007C0.299988 0.870067 1.1 0.0700684 2.09 0.0700684C2.44 0.0700684 2.80001 0.200056 3.07001 0.370056H3.07999ZM13.51 10.4901L3.87 4.91006V16.0601H3.85999V27.2101L13.51 21.6301H13.52L23.17 16.0501L13.5 10.4701L13.51 10.4901Z" fill="#35424B"/>
</svg>
