<svg width="19" height="30" viewBox="0 0 19 30" fill="none" xmlns="http://www.w3.org/2000/svg">
<path d="M11.9644 1.18953V2.47269C13.2289 2.80988 14.306 3.36256 15.2051 4.18678C16.3104 5.19833 17.1158 6.55641 17.6122 8.26106C17.7808 8.8324 17.4905 9.43181 16.9566 9.63787L13.1726 11.2021C12.5826 11.455 11.9082 11.1646 11.6647 10.5839L11.6272 10.4902C11.3275 9.61917 10.9528 8.99161 10.5314 8.59823C8.86417 7.02471 6.5601 9.41307 8.96721 10.5651C10.2504 11.1739 11.6272 11.5861 12.9385 12.1481C14.1374 12.6913 15.2613 13.2252 16.2073 14.1524C17.1252 15.061 17.7902 16.2129 18.1086 17.468C18.2679 18.0955 18.3522 18.7793 18.3522 19.5005C18.3522 20.5683 18.1929 21.5892 17.8557 22.5164C17.5186 23.453 17.0128 24.2961 16.3572 25.0454C15.7015 25.7759 14.9054 26.366 13.9875 26.8062C13.3787 27.0872 12.695 27.2932 11.955 27.4712V28.848C11.955 29.4849 11.4493 30 10.803 30H7.54353C6.92536 30 6.40088 29.4755 6.40088 28.848V27.4712C4.87419 27.1153 3.60036 26.4596 2.57008 25.448C1.3431 24.2492 0.509545 22.6007 0.0318687 20.5402C-0.117991 19.9313 0.275383 19.3132 0.902919 19.1727L5.09896 18.0675C5.70777 17.9176 6.35404 18.2735 6.51327 18.9011L6.53202 18.9947C6.68188 19.9313 6.99094 20.6057 7.44052 21.0085C7.87136 21.4018 8.49894 21.5985 9.29506 21.5985C11.1496 21.5985 12.1424 19.8284 9.93196 18.8356L9.86639 18.798C9.37935 18.5733 8.73305 18.3391 7.96502 18.0487C7.19699 17.7865 6.48517 17.5148 5.867 17.2339C5.23946 16.9529 4.67747 16.6719 4.20916 16.3909C3.69402 16.0818 3.22572 15.7072 2.81361 15.2763C2.39213 14.8455 2.0456 14.3678 1.72715 13.8245L1.67096 13.7309C1.37124 13.2064 1.16517 12.6351 1.01531 12.045C0.425238 9.6192 0.949746 7.02477 2.42024 5.02976C2.98221 4.28047 3.67529 3.6716 4.50889 3.20329C5.08023 2.8942 5.69841 2.65064 6.39151 2.46332V1.16152C6.39151 0.533979 6.91604 0 7.53421 0H10.7936C11.4399 0 11.9457 0.533979 11.9457 1.16152L11.9644 1.18953ZM9.6603 3.43744V2.35093H8.71431V3.43744C8.71431 3.99005 8.30222 4.47716 7.74962 4.56145C6.93476 4.69258 6.22292 4.92673 5.64222 5.25454C3.52546 6.41595 2.71057 9.25385 3.27254 11.5111C3.3662 11.9139 3.5067 12.2885 3.68466 12.6444L3.73153 12.71C3.95632 13.094 4.19982 13.4499 4.47144 13.7121C4.75243 14.0025 5.05213 14.246 5.38931 14.4427C5.78269 14.6675 6.24164 14.911 6.79425 15.1452C8.54573 15.9132 10.7655 16.3535 12.2922 17.5524L12.311 17.571C13.1071 18.2079 13.4536 19.1446 13.4536 20.1561C13.4536 20.6619 13.3693 21.1489 13.1914 21.5892C13.0322 22.02 12.7605 22.4509 12.4046 22.8068C12.0487 23.1815 11.571 23.4905 11.009 23.6778C10.5126 23.8558 9.94129 23.9307 9.30438 23.9307C7.90882 23.9307 6.76618 23.5186 5.89513 22.7318C5.30505 22.1792 4.8648 21.4861 4.56508 20.615L2.58883 21.1302C2.95411 22.2635 3.50674 23.144 4.19047 23.8277C5.06153 24.6613 6.20417 25.1671 7.6091 25.3825C8.22727 25.4106 8.72368 25.9164 8.72368 26.5252V27.7053H9.66968V26.5158H9.68843C9.68843 25.9351 10.1193 25.4481 10.6812 25.3638C11.571 25.2607 12.3484 25.0546 13.0228 24.7174C13.6597 24.4271 14.2029 24.0244 14.6431 23.528H14.6619C15.1208 22.9942 15.4767 22.3947 15.7109 21.7391C15.9451 21.0928 16.0668 20.3435 16.0668 19.5099C16.0668 18.976 16.0106 18.4795 15.8889 18.0393C15.6641 17.187 15.2239 16.4191 14.6057 15.8009C14.3153 15.5106 13.9782 15.2483 13.6129 15.0516C13.1539 14.808 12.6482 14.5365 12.0394 14.2742C10.7187 13.7029 9.32316 13.2813 8.00252 12.6631C7.43118 12.3915 7.00032 12.1199 6.69123 11.8952V11.8764C4.66813 10.2373 5.62349 6.92173 7.87138 6.0694C8.30223 5.90081 8.79862 5.82587 9.31376 5.82587C10.3815 5.82587 11.3275 6.20045 12.1142 6.92164C12.5826 7.38059 13.0134 7.95191 13.36 8.66374L15.0646 7.96128C14.7087 7.10895 14.2404 6.42527 13.6691 5.90076C12.901 5.21703 11.9176 4.75806 10.7281 4.58947C10.1193 4.53327 9.6603 4.03689 9.6603 3.44682V3.43744Z" fill="#000000"/>
</svg>
