<svg width="70" height="71" viewBox="0 0 70 71" fill="none" xmlns="http://www.w3.org/2000/svg">
<path d="M55.3938 12.5822L49.2656 6.4541L43.1375 12.5822C41.2583 14.4612 39.7677 16.6919 38.7507 19.147C37.7337 21.6021 37.2103 24.2334 37.2103 26.8908C37.2103 29.5482 37.7337 32.1796 38.7507 34.6347C39.7677 37.0897 41.2583 39.3205 43.1375 41.1994L46.375 44.4369V50.0158H37.2984C36.6592 47.5401 35.2174 45.346 33.1985 43.777C31.1796 42.2079 28.6975 41.3522 26.1406 41.3439H17.4688V44.2346H8.79688V50.0158H17.4688V55.7971H8.79688V61.5783H17.4688V64.4689H26.1406C28.6975 64.4606 31.1796 63.605 33.1985 62.0359C35.2174 60.4669 36.6592 58.2728 37.2984 55.7971H52.1562V44.4369L55.3938 41.1994C57.2729 39.3205 58.7635 37.0897 59.7805 34.6347C60.7975 32.1796 61.321 29.5482 61.321 26.8908C61.321 24.2334 60.7975 21.6021 59.7805 19.147C58.7635 16.6919 57.2729 14.4612 55.3938 12.5822Z" stroke="#000000" stroke-width="2"/>
</svg>
