<svg width="22" height="30" viewBox="0 0 22 30" fill="none" xmlns="http://www.w3.org/2000/svg">
<path d="M2.38349 16.0275C2.38349 16.6844 1.83923 17.2099 1.18237 17.2099C0.525502 17.2099 0 16.675 0 16.0275V7.94808C0 7.3006 0.516118 6.74695 1.18237 6.74695C1.84862 6.74695 2.38349 7.3006 2.38349 7.94808V8.53923H7.26306V7.28181C7.26306 6.8783 7.46951 6.53112 7.73225 6.30591V5.17045C7.3569 5.06723 7.01908 4.85143 6.74695 4.5793C6.70003 4.52299 6.64373 4.47606 6.58743 4.39161C6.47482 4.59805 6.32469 4.78573 6.16516 4.94525L6.12762 4.99216C5.59274 5.49888 4.88897 5.80857 4.10073 5.80857C3.31249 5.80857 2.57117 5.48952 2.04568 4.95464L1.99875 4.90771C1.50141 4.3916 1.20112 3.67844 1.20112 2.89959C1.20112 2.12073 1.5108 1.37004 2.04568 0.853929C2.57117 0.309669 3.29372 0 4.10073 0C4.90774 0 5.64905 0.30966 6.16516 0.844536C6.33407 1.01344 6.47482 1.20111 6.59681 1.38878C6.64373 1.33248 6.70003 1.2668 6.74695 1.21988C7.18799 0.760076 7.77917 0.506704 8.44542 0.506704C9.11167 0.506704 9.69346 0.778844 10.1345 1.21988L10.172 1.26679L10.294 1.40757C10.416 1.20113 10.5662 1.02284 10.7351 0.853929C11.2512 0.309669 11.9925 0 12.7995 0C13.6065 0 14.3197 0.309669 14.8546 0.853929L14.8921 0.891444C15.4082 1.42632 15.7085 2.1301 15.7085 2.90895C15.7085 3.68781 15.3988 4.45729 14.8639 4.9734C14.3291 5.50828 13.6065 5.82733 12.8089 5.82733C12.0113 5.82733 11.2699 5.50828 10.7444 4.9734C10.5755 4.81388 10.4348 4.6262 10.3034 4.41976C10.2565 4.48545 10.2002 4.54175 10.1533 4.59805L10.1345 4.62621C9.85299 4.89834 9.52456 5.09538 9.15859 5.1986V6.33406C9.45888 6.55927 9.63716 6.90645 9.63716 7.30996V8.56741H13.0435C15.4457 8.56741 17.6134 9.5527 19.1993 11.1104L19.2556 11.1949C20.8039 12.7713 21.7516 14.9108 21.7516 17.2662V18.7113C21.7516 19.3682 21.2261 19.903 20.5693 19.903H15.8023C15.1454 19.903 14.62 19.3682 14.62 18.7113V17.2662C14.62 16.8439 14.4323 16.4498 14.1508 16.1683C13.8693 15.8868 13.4845 15.7085 13.0529 15.7085H2.38349V16.0557V16.0275ZM9.13982 2.20517C8.96153 2.01749 8.73632 1.91427 8.46419 1.91427C8.19206 1.91427 7.93869 2.0269 7.76978 2.19581V2.21456C7.59149 2.3647 7.49766 2.61806 7.49766 2.8808C7.49766 3.14355 7.59149 3.39692 7.76978 3.56583C7.93869 3.74412 8.1639 3.85673 8.42665 3.85673H8.47357C8.72693 3.85673 8.96152 3.74412 9.13043 3.56583C9.29934 3.39692 9.41195 3.15293 9.41195 2.8808C9.41195 2.63683 9.31812 2.40226 9.15859 2.23335L9.13043 2.21456L9.13982 2.20517ZM19.5277 28.0012C19.6872 27.823 19.8092 27.6353 19.8936 27.4382C19.9875 27.2224 20.0156 26.9878 20.0156 26.7157C20.0156 25.5896 19.1336 24.5761 18.3078 23.619L18.1952 23.497L18.1014 23.6002C17.2756 24.5668 16.3653 25.599 16.3653 26.7157C16.3653 26.9878 16.4216 27.213 16.4967 27.4288C16.5906 27.654 16.7219 27.8605 16.9002 28.0294C17.0691 28.2077 17.285 28.3297 17.5008 28.4329C17.7072 28.5267 17.9418 28.5643 18.1952 28.5643C18.4485 28.5643 18.6925 28.5267 18.9177 28.4329L18.9365 28.4141C19.143 28.3297 19.3306 28.1983 19.5089 28.0294L19.5371 28.0012H19.5277ZM21.2074 27.9825C21.0666 28.3578 20.8227 28.705 20.5505 28.9959L20.513 29.0335C20.2221 29.315 19.8843 29.5402 19.4995 29.7185L19.462 29.7373C19.0773 29.9062 18.6456 30 18.2046 30C17.7635 30 17.3413 29.9062 16.9565 29.7373C16.553 29.559 16.1964 29.3338 15.8962 29.0335C15.5959 28.7332 15.3519 28.3672 15.1924 27.9825C15.0235 27.5977 14.9296 27.1661 14.9296 26.7157C14.9296 25.0735 16.0181 23.8348 17.041 22.6713V22.6525C17.2474 22.4273 17.4445 22.1833 17.6509 21.9299C17.6885 21.9018 17.726 21.8736 17.7635 21.8173C18.0732 21.5733 18.5142 21.6109 18.7582 21.9299C18.9177 22.127 19.1523 22.4085 19.3869 22.6806C20.4004 23.8254 21.4795 25.0547 21.4795 26.7063C21.4795 27.1661 21.3857 27.5884 21.2168 27.9731L21.2074 27.9825ZM5.16109 1.82982C4.89834 1.53893 4.53238 1.38878 4.11011 1.38878C3.68784 1.38878 3.33125 1.53893 3.06851 1.82982H3.04973C2.79637 2.09257 2.62747 2.45855 2.62747 2.87144C2.62747 3.28433 2.7776 3.64091 3.03096 3.89427L3.06851 3.92242C3.33125 4.18517 3.7066 4.36346 4.11011 4.36346C4.51361 4.36346 4.87958 4.22269 5.12356 3.96933L5.16109 3.93181C5.4426 3.66907 5.60213 3.30307 5.60213 2.8808C5.60213 2.45853 5.4426 2.10196 5.16109 1.83922V1.82982ZM13.8599 1.82982C13.5971 1.53893 13.2218 1.38878 12.8183 1.38878C12.4148 1.38878 12.0113 1.53893 11.7673 1.82982C11.4858 2.09257 11.3262 2.45855 11.3262 2.87144C11.3262 3.28433 11.4858 3.65967 11.7673 3.92242C12.0113 4.18517 12.396 4.36346 12.8183 4.36346C13.2405 4.36346 13.5971 4.18517 13.8599 3.92242C14.132 3.65967 14.3009 3.29371 14.3009 2.87144C14.3009 2.4867 14.1601 2.1301 13.8974 1.85797L13.8599 1.82982ZM2.39287 10.9321V13.2875H13.0622C14.1601 13.2875 15.1361 13.7566 15.8586 14.4604C16.5718 15.183 17.0128 16.1589 17.0128 17.238V17.4914H19.4057V17.238C19.4057 15.5208 18.7019 13.9725 17.5852 12.8276L17.5383 12.7807C16.3841 11.6171 14.817 10.9227 13.0716 10.9227H2.40225L2.39287 10.9321Z" fill="#000000"/>
</svg>
