<svg width="420" height="70" viewBox="0 0 420 70" fill="none" xmlns="http://www.w3.org/2000/svg">
<path d="M193.066 70L157.777 35L193.066 0L228.354 35L193.066 70ZM160.627 35L193.066 67.1733L225.504 35L193.066 2.82668L160.627 35Z" fill="#FFD7B2"/>
<path d="M195.991 65.2809L165.461 35.0003L195.991 4.71973L196.704 5.42717L166.887 35.0003L196.704 64.5734L195.991 65.2809Z" fill="#FFD7B2"/>
<path d="M199.616 62.094L172.299 35L199.616 7.90918L200.329 8.61663L173.725 35L200.329 61.3866L199.616 62.094Z" fill="#FFD7B2"/>
<path d="M203.036 58.7018L179.139 34.9993L203.036 11.2998L203.75 12.0073L180.565 34.9993L203.75 57.9944L203.036 58.7018Z" fill="#FFD7B2"/>
<path d="M206.456 55.3075L185.98 34.9995L206.456 14.6914L207.169 15.3989L187.404 34.9995L207.169 54.6032L206.456 55.3075Z" fill="#FFD7B2"/>
<path d="M224.005 65.2809L223.295 64.5734L253.112 35.0003L223.295 5.42717L224.005 4.71973L254.535 35.0003L224.005 65.2809Z" fill="#FFD7B2"/>
<path d="M220.383 62.094L219.67 61.3866L246.274 35L219.67 8.61663L220.383 7.90918L247.697 35L220.383 62.094Z" fill="#FFD7B2"/>
<path d="M216.963 58.7018L216.25 57.9944L239.435 34.9993L216.25 12.0073L216.963 11.2998L240.858 34.9993L216.963 58.7018Z" fill="#FFD7B2"/>
<path d="M213.544 55.3075L212.831 54.6032L232.593 34.9995L212.831 15.3989L213.544 14.6914L234.02 34.9995L213.544 55.3075Z" fill="#FFD7B2"/>
<path d="M226.931 70L191.643 35L226.931 0L262.219 35L226.931 70ZM194.493 35L226.931 67.1733L259.369 35L226.931 2.82668L194.493 35Z" fill="#FFD7B2"/>
<path d="M260.796 61.2589L247.557 48.1308L248.983 46.7159L260.796 58.4322L284.422 34.9995L260.796 11.5669L248.983 23.2832L247.557 21.8714L260.796 8.74023L287.272 34.9995L260.796 61.2589Z" fill="#FFD7B2"/>
<path d="M159.204 61.2589L132.729 34.9995L159.204 8.74023L172.44 21.8714L171.017 23.2832L159.204 11.5669L135.575 34.9995L159.204 58.4322L171.017 46.7159L172.44 48.1308L159.204 61.2589Z" fill="#FFD7B2"/>
<path d="M420 34.499H285.848V35.4981H420V34.499Z" fill="#FFD7B2"/>
<path d="M382.055 24.8477H276.112V25.8468H382.055V24.8477Z" fill="#FFD7B2"/>
<path d="M382.055 44.1562H276.112V45.1554H382.055V44.1562Z" fill="#FFD7B2"/>
<path d="M134.152 34.499H0V35.4981H134.152V34.499Z" fill="#FFD7B2"/>
<path d="M143.883 24.8477H37.9434V25.8468H143.883V24.8477Z" fill="#FFD7B2"/>
<path d="M143.883 44.1562H37.9434V45.1554H143.883V44.1562Z" fill="#FFD7B2"/>
</svg>
