<svg width="30" height="30" viewBox="0 0 30 30" fill="none" xmlns="http://www.w3.org/2000/svg">
<path d="M23.6491 12.0923L23.6304 12.111L23.5554 12.1297H23.4524L23.3869 12.1672L23.2838 12.214L23.237 12.2327H22.8904L22.7593 12.214H22.7125L22.6282 12.1672L16.568 10.5562C15.725 10.3595 15.2379 9.479 15.4627 8.65474C15.6875 7.82111 16.5493 7.33404 17.3642 7.55884L19.7901 8.18641L19.6496 7.96159L17.6358 4.43978L17.5889 4.36483C17.3454 3.9808 17.0363 3.64361 16.6617 3.46565H16.6523C16.287 3.24085 15.828 3.10971 15.3222 3.10971C14.8165 3.10971 14.3575 3.24085 13.9735 3.46565C13.5894 3.66234 13.2522 4.01827 13.0087 4.4304L11.7442 6.65028C11.304 7.38087 10.3486 7.64315 9.61797 7.22165C8.86865 6.79079 8.6064 5.85411 9.04663 5.09542L10.3205 2.85682C10.8356 1.95763 11.5568 1.24575 12.4186 0.730592C13.2897 0.262263 14.2638 0 15.3129 0C16.3619 0 17.3641 0.262263 18.2071 0.730592V0.749343C19.022 1.22704 19.7245 1.9108 20.2491 2.77253L20.2959 2.84745L22.3284 6.36929L22.4596 6.63155L23.1246 4.19624C23.3494 3.35325 24.183 2.86619 25.026 3.09099C25.8596 3.32515 26.356 4.14941 26.1219 4.9924L24.4921 11.0432C24.3703 11.5115 24.0425 11.8768 23.6304 12.0642L23.6491 12.0923ZM14.2826 25.1774C13.9547 24.887 13.7393 24.4936 13.7393 24.0159C13.7393 23.5382 13.9454 23.1167 14.2826 22.8357L18.638 18.4896C19.2281 17.8715 20.2303 17.8808 20.8298 18.4896C21.4386 19.0985 21.4386 20.082 20.8204 20.672L19.0501 22.4517H23.3962C23.902 22.4517 24.3329 22.3487 24.7263 22.1239L24.8012 22.0864C25.1571 21.8522 25.4756 21.5338 25.6911 21.1217L25.7473 21.0748C25.9533 20.6439 26.0751 20.2224 26.0751 19.7916C26.0751 19.342 25.944 18.8924 25.6911 18.4615L25.6442 18.3866L24.4359 16.2604C23.9957 15.5017 24.258 14.5369 24.9886 14.1342C25.7379 13.7033 26.6839 13.9562 27.1147 14.6868L28.3418 16.8224L28.398 16.8973C28.9318 17.8246 29.1941 18.7987 29.1941 19.7822C29.1941 20.7657 28.9506 21.6836 28.4448 22.5828L28.398 22.6859C27.8922 23.5476 27.1897 24.2407 26.3935 24.7559L26.2905 24.8027C25.4194 25.2991 24.4359 25.5708 23.3962 25.5708H19.0501L20.8204 27.3504C21.4386 27.9499 21.4386 28.9427 20.8298 29.5422C20.2303 30.151 19.2281 30.151 18.638 29.5516L14.2826 25.1774ZM7.07967 14.6868L7.73528 17.1221C7.96008 17.9557 8.79373 18.4522 9.63673 18.218C10.4704 17.9838 10.9668 17.1409 10.7326 16.3166L9.10282 10.2658C8.89676 9.43217 8.04437 8.94509 7.20138 9.16989L1.15998 10.7809C0.316991 11.0057 -0.170065 11.8675 0.0547334 12.673C0.279531 13.5347 1.14123 14.0031 1.95612 13.8064L4.39141 13.1413L4.24157 13.3942L2.22773 16.916C1.69383 17.8152 1.43159 18.8081 1.43159 19.7916C1.43159 20.7751 1.69383 21.7679 2.22773 22.6859L2.28393 22.7608C2.79909 23.6413 3.51095 24.325 4.33521 24.7933C5.18757 25.2898 6.18982 25.5614 7.22951 25.5614H9.77719C10.6389 25.5614 11.3414 24.8683 11.3414 24.0159C11.3414 23.1636 10.6483 22.4423 9.77719 22.4423H7.22951C6.72371 22.4423 6.26475 22.3393 5.88072 22.1145C5.51542 21.8897 5.19697 21.5806 4.95344 21.1966L4.91599 21.1217C4.67246 20.7095 4.55068 20.2505 4.55068 19.7916C4.55068 19.3326 4.67246 18.8924 4.91599 18.4615L6.93915 14.9584L7.07967 14.6962V14.6868Z" fill="#000000"/>
</svg>
