<svg width="26" height="30" viewBox="0 0 26 30" fill="none" xmlns="http://www.w3.org/2000/svg">
<path d="M18.0157 12.5614C18.6811 12.5614 19.2903 12.8238 19.7308 13.283C20.1713 13.7142 20.4431 14.3327 20.4431 15.0168C20.4431 15.701 20.1713 16.2821 19.7308 16.7226C19.2903 17.1724 18.6718 17.4443 18.0157 17.4443C17.3597 17.4443 16.7224 17.1724 16.2819 16.7226C15.8414 16.2821 15.5603 15.6729 15.5603 15.0168C15.5603 14.3608 15.8414 13.7142 16.2819 13.283C16.7224 12.8238 17.3316 12.5614 18.0157 12.5614ZM1.45546 7.65048C2.68319 7.88478 3.89217 8.19412 5.05429 8.65335C5.47603 8.83142 5.87902 9.00947 6.28202 9.22502C5.92588 6.63836 5.28859 4.0236 4.20144 1.62438C3.92965 1.07143 4.20144 0.368432 4.76376 0.115389C4.99806 0.00292593 5.23237 -0.0251671 5.45729 0.0216927C9.2998 0.77145 13.0954 1.95237 16.4975 4.17352C19.9276 6.40405 22.936 9.64679 25.1478 14.5202C25.2977 14.8482 25.2977 15.1761 25.1478 15.476C22.936 20.3495 19.9276 23.5922 16.4975 25.8227C13.1048 28.0251 9.30917 29.2154 5.45729 29.9839C4.83874 30.087 4.22956 29.6839 4.10773 29.056C4.0515 28.7842 4.10773 28.5031 4.22957 28.2876C5.29797 25.9165 5.91651 23.3298 6.27265 20.7618C5.86965 20.9774 5.46666 21.1742 5.04492 21.3429C3.86406 21.8209 2.62695 22.1396 1.36174 22.3645C0.743186 22.4864 0.152759 22.0833 0.0215516 21.4366C-0.0159363 21.1836 0.021547 20.9399 0.134011 20.7337H0.115263C0.883764 19.1873 1.24928 17.0974 1.24928 15.0075C1.24928 12.9175 0.893135 10.8088 0.115263 9.26243C-0.165896 8.69074 0.0871484 7.9973 0.658838 7.70677C0.902509 7.60368 1.18368 7.5755 1.44609 7.6411L1.45546 7.65048ZM4.19207 10.7994C3.79845 10.6401 3.39546 10.4996 2.99246 10.3778C3.38608 11.821 3.5829 13.4142 3.5829 15.0168C3.5829 16.6194 3.38608 18.2033 2.99246 19.6279C3.40483 19.4967 3.79845 19.3654 4.19207 19.2155C5.1855 18.8031 6.11332 18.269 6.9568 17.5379C7.18173 17.3411 7.47226 17.238 7.7909 17.2567C8.4282 17.3036 8.90617 17.866 8.85931 18.4939C8.62501 21.4554 8.10018 24.4451 7.11612 27.2661C9.98394 26.5538 12.758 25.5415 15.251 23.9108C18.2313 21.9708 20.8367 19.178 22.8423 15.0262C20.8367 10.8557 18.2313 8.04409 15.251 6.11347C12.758 4.49212 9.98394 3.47062 7.11612 2.75835C8.10018 5.56056 8.62501 8.55959 8.85931 11.5399C8.87805 11.821 8.78433 12.1397 8.56878 12.3834C8.15641 12.8707 7.4254 12.8988 6.94743 12.4864C6.10395 11.7461 5.17613 11.2025 4.18271 10.8088L4.19207 10.7994ZM18.7561 14.2578C18.578 14.061 18.2969 13.939 18.0157 13.939C17.7158 13.939 17.444 14.061 17.266 14.2578C17.0691 14.4546 16.9473 14.7075 16.9473 15.0075C16.9473 15.2886 17.0691 15.5511 17.266 15.7479C17.444 15.9353 17.7158 16.0477 18.0157 16.0477C18.2969 16.0477 18.5687 15.9353 18.7561 15.7479C18.9529 15.5511 19.0654 15.298 19.0654 15.0075C19.0654 14.7075 18.9529 14.4546 18.7561 14.2578Z" fill="#000000"/>
</svg>
