<svg width="30" height="33" viewBox="0 0 30 33" fill="none" xmlns="http://www.w3.org/2000/svg">
<path d="M18.09 0.0600586H27.35C28.34 0.0600586 29.14 0.860057 29.14 1.84006V30.2801C29.14 31.2601 28.34 32.0601 27.35 32.0601H18.09C17.1 32.0601 16.29 31.2701 16.29 30.2801V1.84006C16.29 0.860057 17.1 0.0600586 18.09 0.0600586ZM25.57 3.62006H19.87V28.5001H25.57V3.62006ZM1.78 0.0600586H11.07C12.05 0.0600586 12.87 0.860057 12.87 1.84006V30.2801C12.87 31.2601 12.04 32.0601 11.07 32.0601H1.78C0.789999 32.0601 0 31.2701 0 30.2801V1.84006C0 0.860057 0.789999 0.0600586 1.78 0.0600586ZM9.26001 3.62006H3.56V28.5001H9.26001V3.62006Z" fill="#35424B"/>
</svg>
