<svg width="565" height="39" viewBox="0 0 565 39" fill="none" xmlns="http://www.w3.org/2000/svg">
<path d="M0 20.8525L565 20.8525L565 18.1475L2.36478e-07 18.1475L0 20.8525Z" fill="#282828"/>
<path d="M128.627 0.000160475L136.642 8.84601L422.112 8.84603L430.128 0.000186833L431.119 0.911653L422.904 9.97592C422.779 10.1145 422.596 10.1943 422.408 10.1943L136.346 10.1943C136.159 10.1943 135.98 10.1145 135.85 9.97589L127.635 0.911626L128.627 0.000160475Z" fill="#282828"/>
<path d="M430.127 38.9998L422.112 30.154L136.642 30.154L128.626 38.9998L127.635 38.0883L135.85 29.0241C135.975 28.8855 136.158 28.8057 136.346 28.8057L422.408 28.8057C422.595 28.8057 422.774 28.8855 422.904 29.0241L431.119 38.0883L430.127 38.9998Z" fill="#282828"/>
</svg>
