<svg width="135" height="138" viewBox="0 0 135 138" fill="none" xmlns="http://www.w3.org/2000/svg">
<path d="M67.5 0L125.957 103.096H9.04329L67.5 0Z" fill="#D9D9D9"/>
<path d="M60.4801 59.015C64.1918 59.015 67.1614 55.9577 67.1614 52.2353C67.1614 48.5128 64.1918 45.4555 60.4801 45.4555C56.7684 45.4555 53.7988 48.5128 53.7988 52.2353C53.7988 55.9577 56.7684 59.015 60.4801 59.015Z" stroke="black" stroke-width="2.5626"/>
<ellipse cx="62.1" cy="52.2355" rx="1.62" ry="1.64953" fill="black"/>
<path d="M78.9249 58.8509C82.6366 58.8509 85.6062 55.7936 85.6062 52.0712C85.6062 48.3488 82.6366 45.2915 78.9249 45.2915C75.2132 45.2915 72.2436 48.3488 72.2436 52.0712C72.2436 55.7936 75.2132 58.8509 78.9249 58.8509Z" stroke="black" stroke-width="2.5626"/>
<ellipse cx="81.0847" cy="52.0709" rx="1.62" ry="1.64953" fill="black"/>
<path d="M75.6905 86.7486C74.3146 86.7486 73.0843 86.5011 71.9995 86.0061C70.9148 85.5037 70.0557 84.8085 69.4224 83.9203C68.789 83.0321 68.4541 82.0093 68.4177 80.8518H70.4816C70.518 81.6671 70.7692 82.3806 71.2351 82.9921C71.701 83.5964 72.3199 84.0696 73.0915 84.4117C73.8632 84.7466 74.7223 84.914 75.6687 84.914C76.7025 84.914 77.6125 84.7211 78.3987 84.3353C79.1923 83.9494 79.8111 83.4216 80.2552 82.7519C80.7065 82.0748 80.9322 81.3104 80.9322 80.4586C80.9322 79.5559 80.7029 78.7587 80.2442 78.0671C79.7856 77.3755 79.1268 76.8368 78.2677 76.4509C77.4159 76.0651 76.3967 75.8722 75.2101 75.8722H73.8996V74.0376H75.2101C76.1783 74.0376 77.0337 73.8629 77.7763 73.5134C78.5261 73.1567 79.1158 72.658 79.5454 72.0173C79.9749 71.3767 80.1896 70.6232 80.1896 69.7569C80.1896 68.9342 80.004 68.2099 79.6327 67.5838C79.2614 66.9577 78.7373 66.4663 78.0602 66.1095C77.3904 65.7528 76.6078 65.5745 75.7124 65.5745C74.846 65.5745 74.0525 65.7419 73.3318 66.0768C72.6111 66.4117 72.0286 66.8849 71.5846 67.4964C71.1478 68.1079 70.9148 68.8323 70.8857 69.6695H68.9091C68.9382 68.5047 69.2586 67.4818 69.8701 66.6009C70.4889 65.7128 71.3079 65.0212 72.3271 64.5261C73.3536 64.0238 74.4893 63.7726 75.7342 63.7726C77.0519 63.7726 78.1913 64.042 79.1522 64.5807C80.1132 65.1194 80.8558 65.8365 81.3799 66.732C81.9114 67.6202 82.1771 68.5993 82.1771 69.6695C82.1771 70.9435 81.8313 72.0355 81.1397 72.9456C80.4481 73.8483 79.5162 74.4744 78.3441 74.8238V74.9658C79.771 75.2497 80.8922 75.8831 81.7075 76.8659C82.5302 77.8414 82.9415 79.039 82.9415 80.4586C82.9415 81.6526 82.6285 82.7264 82.0024 83.6801C81.3763 84.6265 80.5172 85.3763 79.4252 85.9296C78.3405 86.4756 77.0956 86.7486 75.6905 86.7486Z" fill="black"/>
</svg>
