<svg width="28" height="32" viewBox="0 0 28 32" fill="none" xmlns="http://www.w3.org/2000/svg">
<path fill-rule="evenodd" clip-rule="evenodd" d="M0.00402564 9.16341C0.00420067 8.40961 0.540316 7.48425 1.20368 7.09506L12.8006 0.291341C13.4631 -0.0973407 14.536 -0.0973409 15.1997 0.292706L26.8007 7.1094C27.4634 7.49859 28.0002 8.42429 28 9.18134L27.9951 22.7695C27.9949 23.5245 27.4579 24.4534 26.7965 24.8442L15.1745 31.7071C14.5127 32.098 13.4412 32.0978 12.7784 31.7054L1.1972 24.8459C0.535591 24.4541 -0.000349888 23.5258 1.71388e-07 22.7717L0.00402564 9.16341ZM2.44324 8.05831L13.9661 14.333L24.952 8.14042L13.9476 1.83855L2.44324 8.05831ZM1.70006 10.0891C1.70006 10.367 1.51366 22.3555 1.51366 22.3555C1.5077 22.7321 1.77042 23.1949 2.10298 23.3907L12.8869 29.7376L12.9861 16.5233C12.9861 16.5233 1.70006 9.81104 1.70006 10.0891ZM15.021 29.7089L25.6824 23.1097C26.0906 22.857 26.4216 22.2707 26.4216 21.7989V10.0217L15.021 16.4251V29.7089Z" fill="#282828"/>
<path fill-rule="evenodd" clip-rule="evenodd" d="M5.23206 16.7073C4.39507 17.1788 3.28538 16.8328 2.75364 15.9347C2.22208 15.0367 2.46975 13.9265 3.30674 13.4552C4.1439 12.9837 5.25359 13.3297 5.78515 14.2277C6.31689 15.1258 6.06923 16.236 5.23206 16.7073ZM10.833 20.292C9.99602 20.7635 8.88633 20.4175 8.35459 19.5194C7.82302 18.6214 8.07069 17.5111 8.90768 17.0398C9.74485 16.5684 10.8545 16.9144 11.3861 17.8124C11.9178 18.7105 11.6702 19.8207 10.833 20.292ZM5.23206 23.0232C4.39507 23.4946 3.28538 23.1486 2.75364 22.2506C2.22208 21.3525 2.46975 20.2423 3.30674 19.771C4.1439 19.2995 5.25359 19.6456 5.78515 20.5436C6.31689 21.4416 6.06923 22.5519 5.23206 23.0232ZM10.833 26.6079C9.99602 27.0793 8.88633 26.7333 8.35459 25.8353C7.82302 24.9372 8.07069 23.827 8.90768 23.3557C9.74485 22.8842 10.8545 23.2302 11.3861 24.1283C11.9178 25.0263 11.6702 26.1366 10.833 26.6079ZM24.527 13.2845C23.6898 12.813 22.5803 13.159 22.0485 14.057C21.517 14.9551 21.7645 16.0653 22.6016 16.5366C23.4388 17.0081 24.5485 16.6621 25.0801 15.764C25.6118 14.866 25.3641 13.7558 24.527 13.2845ZM21.6848 18.2347C20.8478 17.7633 19.7382 18.1093 19.2064 19.0073C18.6749 19.9054 18.9225 21.0156 19.7595 21.4869C20.5967 21.9584 21.7064 21.6123 22.2379 20.7143C22.7697 19.8163 22.522 18.706 21.6848 18.2347ZM18.7093 23.0143C17.8723 22.5428 16.7627 22.8888 16.2309 23.7869C15.6994 24.6849 15.947 25.7952 16.784 26.2665C17.6212 26.7379 18.7309 26.3919 19.2624 25.4939C19.7942 24.5958 19.5465 23.4856 18.7093 23.0143ZM14.1131 5.9043C13.0014 5.9043 12.1002 6.74499 12.1002 7.78198C12.1002 8.81898 13.0014 9.65967 14.1131 9.65967C15.2247 9.65967 16.1259 8.81898 16.1259 7.78198C16.1259 6.74499 15.2247 5.9043 14.1131 5.9043Z" fill="#282828"/>
</svg>
