<svg width="1328" height="40" viewBox="0 0 1328 40" fill="none" xmlns="http://www.w3.org/2000/svg">
<path d="M0 20.8534L1328 20.8535L1328 18.1485L3.54255e-07 18.1484L0 20.8534Z" fill="#282828"/>
<path d="M302.329 0.00112247L321.169 8.84698L992.15 8.84701L1010.99 0.00115507L1013.32 0.912622L994.011 9.97689C993.717 10.1155 993.286 10.1953 992.846 10.1953L320.474 10.1953C320.033 10.1953 319.612 10.1155 319.308 9.97686L299.999 0.912589L302.329 0.00112247Z" fill="#282828"/>
<path d="M1010.99 39.0027L992.149 30.1569L321.168 30.1569L302.329 39.0027L299.998 38.0913L319.307 29.027C319.601 28.8884 320.032 28.8086 320.473 28.8086L992.845 28.8086C993.285 28.8086 993.707 28.8884 994.01 29.027L1013.32 38.0913L1010.99 39.0027Z" fill="#282828"/>
</svg>
