<svg width="32" height="32" viewBox="0 0 32 32" fill="none" xmlns="http://www.w3.org/2000/svg">
<path d="M16.01 0C20.43 0 24.43 1.78055 27.33 4.68146C30.23 7.58236 32 11.5836 32 15.995C32 20.4064 30.23 24.4076 27.33 27.3085H27.31L27.29 27.3286C24.4 30.2095 20.4 32 16 32C11.6 32 7.58 30.2195 4.68999 27.3185C1.79999 24.4176 0 20.4164 0 16.005C0 11.5936 1.78999 7.59238 4.68999 4.69147C7.58999 1.79056 11.59 0.0100129 16 0.0100129L16.01 0ZM14.78 5.92184V15.995C14.78 16.6652 15.33 17.2254 16.01 17.2254H24.12C24.82 17.2254 25.36 16.6652 25.36 15.995C25.36 15.3248 24.82 14.7646 24.12 14.7646H17.24V5.92184C17.24 5.24162 16.7 4.68146 16.02 4.68146C15.34 4.68146 14.79 5.24162 14.79 5.92184H14.78ZM25.58 6.42199C23.13 3.96122 19.74 2.46073 16.01 2.46073C12.28 2.46073 8.88 3.97123 6.43999 6.42199H6.42C3.98 8.87276 2.46 12.2538 2.46 16.005C2.46 19.7562 3.97999 23.1273 6.43999 25.588C8.88 28.0288 12.28 29.5392 16.01 29.5392C19.74 29.5392 23.14 28.0288 25.58 25.588C28.03 23.1273 29.54 19.7462 29.54 16.005C29.54 12.2638 28.02 8.87277 25.58 6.432V6.42199Z" fill="#282828"/>
</svg>
