<svg width="540" height="153" viewBox="0 0 540 153" fill="none" xmlns="http://www.w3.org/2000/svg">
<path d="M269.89 2H74.8828L37.4414 39.0514L74.8828 76.1028L37.4414 113.154L74.8828 150.206H269.89" stroke="#1AE6A1" stroke-width="4"/>
<path d="M269.11 150.207L464.117 150.207L501.559 113.156L464.117 76.1043L501.559 39.0529L464.117 2.00152L269.11 2.0015" stroke="#1AE6A1" stroke-width="4"/>
<rect x="29.252" y="48.2658" width="39.3673" height="39.3673" transform="rotate(45 29.252 48.2658)" stroke="#1AE6A1" stroke-width="2"/>
<path d="M191.108 2H79.2075L57.7227 39.0514L79.2075 76.1028L57.7227 113.154L79.2075 150.206H191.108" stroke="#1AE6A1" stroke-width="2"/>
<path d="M348.674 2H460.574L482.059 39.0514L460.574 76.1028L482.059 113.154L460.574 150.206H348.674" stroke="#1AE6A1" stroke-width="2"/>
<rect x="29.2969" y="60.5081" width="21.9879" height="21.9879" transform="rotate(45 29.2969 60.5081)" stroke="#1AE6A1" stroke-width="4"/>
<rect x="509.795" y="60.5081" width="21.9879" height="21.9879" transform="rotate(45 509.795 60.5081)" stroke="#1AE6A1" stroke-width="4"/>
<rect x="509.75" y="103.937" width="39.3673" height="39.3673" transform="rotate(-135 509.75 103.937)" stroke="#1AE6A1" stroke-width="2"/>
</svg>
